STARTFONT 2.3
FONT -FontForge-Satisfy-Book-R-Normal--24-240-72-72-P-104-ISO10646-1
SIZE 24 72 72  4
FONTBOUNDINGBOX 28 35 -5 -12
COMMENT "Generated by fontforge, http://fontforge.sourceforge.net"
COMMENT "Copyright (c) 2011 by Font Diner, Inc. All rights reserved."
STARTPROPERTIES 40
FOUNDRY "FontForge"
FAMILY_NAME "Satisfy"
WEIGHT_NAME "Book"
SLANT "R"
SETWIDTH_NAME "Normal"
ADD_STYLE_NAME ""
PIXEL_SIZE 24
POINT_SIZE 240
RESOLUTION_X 72
RESOLUTION_Y 72
SPACING "P"
AVERAGE_WIDTH 104
CHARSET_REGISTRY "ISO10646"
CHARSET_ENCODING "1"
FONTNAME_REGISTRY ""
CHARSET_COLLECTIONS "ISO10646-1"
BITS_PER_PIXEL 4
FONT_NAME "Satisfy-Regular"
FACE_NAME "Satisfy Regular"
COPYRIGHT "Copyright (c) 2011 by Font Diner, Inc. All rights reserved."
FONT_VERSION "1.001"
FONT_ASCENT 19
FONT_DESCENT 5
UNDERLINE_POSITION -2
UNDERLINE_THICKNESS 2
X_HEIGHT 9
CAP_HEIGHT 17
RAW_ASCENT 799
RAW_DESCENT 200
NORM_SPACE 7
RELATIVE_WEIGHT 40
RELATIVE_SETWIDTH 50
SUPERSCRIPT_X 0
SUPERSCRIPT_Y 11
SUPERSCRIPT_SIZE 15
SUBSCRIPT_X 0
SUBSCRIPT_Y 3
SUBSCRIPT_SIZE 15
AVG_LOWERCASE_WIDTH 98
AVG_UPPERCASE_WIDTH 136
ENDPROPERTIES
CHARS 227
STARTCHAR space
ENCODING 32
SWIDTH 280 0
DWIDTH 7 0
BBX 1 1 0 0
BITMAP
00
ENDCHAR
STARTCHAR exclam
ENCODING 33
SWIDTH 249 0
DWIDTH 6 0
BBX 8 19 -1 -1
BITMAP
00000693
00004FF3
00007FE0
0000AFA0
0000DF60
0002FF20
0005FD00
0009F900
000CF500
001FF100
004FC000
007F8000
00BF4000
00EE0000
02B40000
00000000
07B70000
6FF80000
27500000
ENDCHAR
STARTCHAR quotedbl
ENCODING 34
SWIDTH 249 0
DWIDTH 6 0
BBX 7 8 1 10
BITMAP
01840670
0AF35F70
0EE09F30
3FA0DE00
6F52FA00
AF16F600
ED09F200
63055000
ENDCHAR
STARTCHAR numbersign
ENCODING 35
SWIDTH 417 0
DWIDTH 10 0
BBX 12 13 -1 2
BITMAP
000006E11C90
00000DA05F30
00003F50AD00
008BDFDDFEB7
05FDFDACFAA4
0002F509D000
0007F10E8000
1ACEFEEFED80
6DCFB9DE8830
007F20EA0000
00CD04F60000
02F909F20000
013002100000
ENDCHAR
STARTCHAR dollar
ENCODING 36
SWIDTH 292 0
DWIDTH 7 0
BBX 9 19 -1 -1
BITMAP
0000004100
000001E300
000039F600
0008F87F60
004F700BB0
009F100CD0
009F101F80
007F504600
002FC00000
000BF30000
0003FA0000
0000AF2000
3B004F6000
CB002F7000
AD006F3000
2EB9F70000
01DB200000
01F5000000
0030000000
ENDCHAR
STARTCHAR percent
ENCODING 37
SWIDTH 574 0
DWIDTH 14 0
BBX 14 19 0 -1
BITMAP
00026300000058
004EEF500009F4
02EB08E0005F80
09E105F201EC00
0DA007F10AE200
0F700BD06F5000
0F703F62EA0000
0BD7DC1BD10000
02CEA17F400000
000002F8000000
00000CD04CE800
00008F33EB5F60
0003F90BD10CB0
000DD12F600CB0
008F505F201E90
04FA006F105F40
1DE2004F52DB00
9F70000CFFC200
53000001540000
ENDCHAR
STARTCHAR ampersand
ENCODING 38
SWIDTH 460 0
DWIDTH 11 0
BBX 13 20 -2 -2
BITMAP
000000005BC400
00000008E6AC00
0000004F409B00
000000BE03F600
000000FC3EC000
000002FDED1000
000003FFE20000
000005FE300000
00004EFC000000
0003EFFD000000
002EF7FF000000
00CF80FF200000
07FC00DF500000
0EF400BF800320
2FE0008FC05C10
2FE0005FF9C100
0EF9214FFB0000
06FFFFFFFE2000
00378625FE6000
00000000210000
ENDCHAR
STARTCHAR quotesingle
ENCODING 39
SWIDTH 113 0
DWIDTH 3 0
BBX 4 8 1 10
BITMAP
0184
0AF3
0EE0
3FA0
6F50
AF10
ED00
6300
ENDCHAR
STARTCHAR parenleft
ENCODING 40
SWIDTH 234 0
DWIDTH 6 0
BBX 8 23 0 -3
BITMAP
00000037
000004F6
00002EA0
0000BD10
0005F600
000CD000
004F7000
00AF2000
01EC0000
05F70000
09F40000
0DF10000
1FC00000
3FA00000
6F700000
7F600000
8F400000
7F300000
6F300000
4F400000
1F800000
0A900000
01400000
ENDCHAR
STARTCHAR parenright
ENCODING 41
SWIDTH 204 0
DWIDTH 5 0
BBX 8 23 -3 -3
BITMAP
00000430
000007C0
000005F3
000002F6
000001F8
000001F9
000002F9
000004F8
000006F7
000008F5
00000AF2
00000EE0
00002FA0
00006F60
0000BF10
0001FB00
0006F500
000CD000
005F6000
01DC0000
0AF30000
5F500000
53000000
ENDCHAR
STARTCHAR asterisk
ENCODING 42
SWIDTH 327 0
DWIDTH 8 0
BBX 9 9 1 9
BITMAP
0001420000
0004FE1000
3D34F70000
AFE7E49E10
048EFDEE20
02BDE50000
3EF6AF5000
1CC05FC000
0120160000
ENDCHAR
STARTCHAR plus
ENCODING 43
SWIDTH 350 0
DWIDTH 8 0
BBX 10 9 -1 4
BITMAP
000007A000
00001FB000
00005F7000
0379CFB981
0EFFFFFFE2
1632FB0000
0004F80000
0007F50000
0003400000
ENDCHAR
STARTCHAR comma
ENCODING 44
SWIDTH 200 0
DWIDTH 5 0
BBX 4 5 -1 -3
BITMAP
2A90
AFF2
4DD0
0C60
6700
ENDCHAR
STARTCHAR hyphen
ENCODING 45
SWIDTH 353 0
DWIDTH 8 0
BBX 10 3 -1 6
BITMAP
0245566540
1EFFFFFFE1
4965443320
ENDCHAR
STARTCHAR period
ENCODING 46
SWIDTH 213 0
DWIDTH 5 0
BBX 4 3 -1 -1
BITMAP
19C4
AFF4
3830
ENDCHAR
STARTCHAR slash
ENCODING 47
SWIDTH 262 0
DWIDTH 6 0
BBX 13 19 -3 -1
BITMAP
00000000003920
0000000003FA00
000000000BE200
000000004F7000
00000000DD0000
00000006F40000
0000001EB00000
0000008F200000
000002F9000000
00000AE1000000
00003F70000000
0000CE10000000
0005F700000000
000DE100000000
006F7000000000
01EE1000000000
08F70000000000
2FE10000000000
25100000000000
ENDCHAR
STARTCHAR zero
ENCODING 48
SWIDTH 489 0
DWIDTH 12 0
BBX 11 19 0 -1
BITMAP
000000697000
00001CFDF900
0000CF509F20
0008F8003F70
002FE1001F90
009F70001FB0
01EF10001FB0
06FB00002FB0
0AF700004F90
0EF400007F70
2FF10000BF40
4FE00001FF10
4FD00005FB00
3FD0000BF500
1FE0003FC000
0DF200CF4000
08F819F70000
01DFFF700000
001772000000
ENDCHAR
STARTCHAR one
ENCODING 49
SWIDTH 272 0
DWIDTH 7 0
BBX 7 19 0 -1
BITMAP
00003400
0005FF10
005FFE00
002CFA00
0008F700
000BF300
000EE000
002FA000
005F7000
009F3000
00CE0000
01FB0000
05F70000
09F30000
0DE00000
3FC00000
7FB00000
9FD00000
15300000
ENDCHAR
STARTCHAR two
ENCODING 50
SWIDTH 448 0
DWIDTH 11 0
BBX 12 19 -1 -1
BITMAP
00000038A920
00001BD59FD1
0001DE200DF4
000AF7000CF5
000FF3000EF4
000CE3002FF1
000000008F90
00000001EF20
00000009F700
0000005FB000
000004EC1000
00004ED20000
0005FD200000
006FC1000000
06FB10000000
3FD124431000
9FCDFFFFF300
4FFECCDFF200
063000015000
ENDCHAR
STARTCHAR three
ENCODING 51
SWIDTH 462 0
DWIDTH 11 0
BBX 12 19 -1 -1
BITMAP
000002799600
00007FFBBFC1
0007FD2008F7
000EF40006F9
002FF10008F8
000DF7000DF3
000130009FA0
00000006FC10
0000019FC100
00004DFD4000
00005B79F800
00000000CF10
00000000BF30
00000000EF10
06A40004FB00
1FF5000BF400
0DFC119F9000
04EFFFF90000
002798300000
ENDCHAR
STARTCHAR four
ENCODING 52
SWIDTH 452 0
DWIDTH 11 0
BBX 11 19 0 -1
BITMAP
000000004710
0000003EFF20
000000CFDD00
00000AF6DA00
00007F82F600
0005FB06F200
004FC10AE000
03EE200EB000
3EF3003F7000
DF9568BFB300
CFFFFFFFF900
396321EE7400
000003FC0000
000007F90000
00000BF70000
00000EF60000
00003FF40000
00003FF40000
000006400000
ENDCHAR
STARTCHAR five
ENCODING 53
SWIDTH 444 0
DWIDTH 11 0
BBX 12 19 0 -1
BITMAP
000002456630
0004EFFFFFF1
0008E99ADFE0
000CA0000560
002F50000000
007F10000000
00CB00000000
02F73ACA1000
06FAFFFFB000
0AFF912EF000
05D80009F100
00000009E000
0000000CB000
0520002F6000
6F30009E0000
EF9007F60000
DFFDDF900000
4FFFF9000000
038830000000
ENDCHAR
STARTCHAR six
ENCODING 54
SWIDTH 477 0
DWIDTH 11 0
BBX 11 19 0 -1
BITMAP
000000279500
000005ECDF20
00005FA07F60
0002ED00AF50
000BF401FB00
003FB0000000
00AF40330000
02FE3DFFC100
06FCEC15F800
0BFFF200FC00
0EFE9000FE00
1FF32002FD00
2FF00005FA00
1FE0000AF600
0EF0001FE100
0BF3008F7000
06FA05FB0000
00BFDFB10000
001784000000
ENDCHAR
STARTCHAR seven
ENCODING 55
SWIDTH 406 0
DWIDTH 10 0
BBX 10 19 1 -1
BITMAP
0024567761
0AFFFFFFFA
0FFB7545FA
09100009F3
0000004F80
000001EC00
00000AF300
00005FA000
0001EE2000
0009F80000
002FE10000
00AF800000
02FF200000
08FA000000
1EF4000000
6FE0000000
AFB0000000
BFB0000000
2410000000
ENDCHAR
STARTCHAR eight
ENCODING 56
SWIDTH 444 0
DWIDTH 11 0
BBX 12 19 -1 -1
BITMAP
000000289710
000005F848E1
00003F8000D6
0000BF1000E7
0000FF0008F3
0001FF105FA0
0000EF65FD10
00009FEFD200
00003FFC1000
0002CFFF2000
002DE3BF9000
00CF304FF100
07F7000EF400
0EE1000CF600
3FA0000CF500
3F90001FE100
1FC001BF6000
06FB9EE60000
003797200000
ENDCHAR
STARTCHAR nine
ENCODING 57
SWIDTH 462 0
DWIDTH 11 0
BBX 11 19 0 -1
BITMAP
000002895000
00007FB8F600
0006F9008D00
002FC0005F30
009F40004F50
01FD00005F60
05F90002DF50
07F60007FF40
08F5000CFF20
07F6005FDE00
04FB02E9EA00
00DFDEA5F600
0029A50CE100
0000005F9000
090001DE1000
5F201CF60000
7FE9DF900000
2EFFF8000000
027720000000
ENDCHAR
STARTCHAR colon
ENCODING 58
SWIDTH 226 0
DWIDTH 5 0
BBX 5 8 -1 -1
BITMAP
007A50
05FF90
029710
000000
000000
19C400
AFF400
383000
ENDCHAR
STARTCHAR semicolon
ENCODING 59
SWIDTH 212 0
DWIDTH 5 0
BBX 5 10 -1 -3
BITMAP
029A20
0AFF40
049500
000000
000000
2A9000
AFF200
4DD000
0C6000
670000
ENDCHAR
STARTCHAR less
ENCODING 60
SWIDTH 271 0
DWIDTH 7 0
BBX 9 11 -1 2
BITMAP
0000014610
00003DF600
0004EE4000
006FE30000
09FD200000
1FF3000000
09F8000000
01EF200000
007FB00000
000CF40000
0001410000
ENDCHAR
STARTCHAR equal
ENCODING 61
SWIDTH 374 0
DWIDTH 9 0
BBX 10 6 -1 5
BITMAP
0037899985
00EFFFFFFA
0163211110
0379ABAA70
0EFFEEEE90
1520000000
ENDCHAR
STARTCHAR greater
ENCODING 62
SWIDTH 250 0
DWIDTH 6 0
BBX 8 11 -2 2
BITMAP
00056100
0008F900
0001DF30
00005FC0
00000CF5
000009FC
00009FD3
000AFC10
01BFA000
2CF70000
23100000
ENDCHAR
STARTCHAR question
ENCODING 63
SWIDTH 413 0
DWIDTH 10 0
BBX 13 19 -1 -1
BITMAP
0000049BA82000
0003DFDABFF500
003FF60004FE00
008FA00000EF10
006F900001FE00
0003300006FA00
000000001DF300
00000000AF8000
0000003CF80000
00039EFD500000
000EFA50000000
004FD000000000
007F9000000000
00BF5000000000
00FA0000000000
00200000000000
06A80000000000
4FFE0000000000
19930000000000
ENDCHAR
STARTCHAR at
ENCODING 64
SWIDTH 648 0
DWIDTH 16 0
BBX 17 17 -1 -1
BITMAP
000000014553000000
000003AFCAADD40000
00008FA300006F5000
000BF600154006E200
008F5006EEF780D900
04F9008E52FFD09D00
0BE106F407FF806F10
3F902F80058F206F20
6F409E1000CA007F10
9F20EA0004F400AE00
9F12F8001CD001F900
7F31FC13CF7008F300
2F909FFFAF203F9000
0AF303516F13EC1000
01BE60005FEFB10000
0007ED910685000000
000003500000000000
ENDCHAR
STARTCHAR A
ENCODING 65
SWIDTH 552 0
DWIDTH 13 0
BBX 15 24 -3 -6
BITMAP
0000000000038930
00000000009FDFC0
000000000AF60BE0
000000006F600BC0
00000002FB000EA0
0000000AF3003F80
0000003FC0006F60
0000009F60009F30
000001EE1000DF10
000006FA0001FD00
00000BF50004FB00
00002FE10007F800
00007FD6776BF600
0038EFFFFFFFFF90
0BEDFF75457FFA00
0108FD00002FE000
000DF900005FC000
004FF500007FA000
009FF100009F9000
01EFC00000BF9000
07FF600000BFA000
1EFA000000AFD000
23100000008FF400
0000000000361000
ENDCHAR
STARTCHAR B
ENCODING 66
SWIDTH 607 0
DWIDTH 15 0
BBX 15 23 -1 -5
BITMAP
0000006EAA972000
00003AFFC9AEF800
0008FFFE0002EF70
000BEAFA0000AFD0
00033AF500009FE0
00000EF10000BFC0
00003FC00001FF60
00007F700008FD00
0000CF30003FF300
0001FE0003DF5000
0005FB8CBEE40000
0009FEFFFDF60000
000DF5A820AF6000
002FE000002FE100
007FA000000DF600
00BF7000000EF800
00EF4000003FF600
04FF1000009FF200
08FC000004FFA000
0DF900004EFD1000
1FF60029FFB10000
0CFFDEFFB5000000
0025764100000000
ENDCHAR
STARTCHAR C
ENCODING 67
SWIDTH 548 0
DWIDTH 13 0
BBX 14 23 0 -5
BITMAP
000000038AA400
000001AFC8CF60
00002DF8001FD0
0001DF90000EF3
000AFD00001FF4
004FF400005FF3
00BFC00000CFE0
02FF500008FF80
09FE000001A900
0EF90000000000
3FF50000000000
7FF20000000000
BFD00000000000
DFB00000000000
EFA00000000000
FF800000000000
EF800000000000
CF900000039000
8FD000001D4000
2FF50003D90000
07FF969FB00000
007FFFF8000000
00014510000000
ENDCHAR
STARTCHAR D
ENCODING 68
SWIDTH 632 0
DWIDTH 15 0
BBX 16 23 -1 -5
BITMAP
0000016997300000
00009FFFFFFC3000
0006FE8434AFE300
000591000007FD10
000007D50000CF70
00003FF400007FD0
00005FF100003FF1
00007FD000002FF4
0000AFA000002FF4
0000DF6000004FF4
0001FF3000006FF3
0004FE0000008FF1
0007FB000000CFB0
000AF7000002FF60
000EF3000007FE10
003FE000001EF700
007F9000008FD100
00BF500003FF4000
01FF10002EF70000
07FB0004DF800000
1EFC34AFE6000000
05DFFFF920000000
0004541000000000
ENDCHAR
STARTCHAR E
ENCODING 69
SWIDTH 523 0
DWIDTH 13 0
BBX 14 23 -1 -5
BITMAP
0000000159A820
0000008EEA7BE3
00001CFA1001FB
0000CFB00001FD
0007FF200005FB
000DFA00000CF7
002FF70002BFD1
003FF600006A30
001FF800000000
0008FE10000000
0000AFB4510000
00005EFFF70000
002CF726700000
03EE4000000000
0DF70000000000
5FE10000000200
9FC00000001C00
BFD00000009800
9FF2000005E200
4FFB00005F7000
09FFC76BF90000
007EFFFE600000
00014540000000
ENDCHAR
STARTCHAR F
ENCODING 70
SWIDTH 585 0
DWIDTH 14 0
BBX 13 23 1 -5
BITMAP
00003689997200
018EFFDCBDFF60
2DFA4100006FC0
CFB00000003FB0
FFD43000007F50
9FFF900000ED00
06BA100006F600
000000000DE000
000000006F7000
00002334DF2000
04EFFFFFFFFD00
0ADA755EF66300
0100006FB00000
000000DF500000
000005FE000000
00000CF9000000
00003FF3000000
00008FE0000000
0000DFA0000000
0002FF80000000
0005FF70000000
0006FF70000000
00014100000000
ENDCHAR
STARTCHAR G
ENCODING 71
SWIDTH 612 0
DWIDTH 15 0
BBX 14 23 0 -5
BITMAP
0000000059A700
0000003DFAAFA0
000005FE300CF1
00003FF30009F5
0001DF70000BF5
0009FD00001EF4
002FF600009FF1
009FE10007FFA0
02FF900001BD20
07FF4000000000
0CFE0000000000
1FFA0000000000
4FF6006ACDEFFA
7FF300BCBBDFC3
9FF1000000CF10
9FE0000001FC00
9FD0000007F600
7FD000000EE100
4FF000008F6000
0DF40004FA0000
05FB005EC10000
007FEDFB100000
00037840000000
ENDCHAR
STARTCHAR H
ENCODING 72
SWIDTH 649 0
DWIDTH 16 0
BBX 17 23 -1 -5
BITMAP
000000251000000220
000004FE000000BF90
00000AFA000002FF40
00000DF6000007FE00
00002FF100000BF900
00005FC000000EF400
00009F9000003FE000
0000CF5000007FA000
0001FF100000BF5000
0004FC000000EF1000
0008F946789AFE7300
004DFFFFEEFFFFF900
00AFF68EA00BF9A000
004FC003E80EE00000
007F90006F4FA00000
00BF70000DDF700000
00EF400008FF300000
03FF100006FF000000
06FD000006FC000000
0AFB000007FA000000
0DF8000009F8000000
2FF600000BF5000000
164000000000000000
ENDCHAR
STARTCHAR I
ENCODING 73
SWIDTH 537 0
DWIDTH 13 0
BBX 15 23 -2 -5
BITMAP
0000000000278100
0000000008FDF900
000000008FC1FA00
00000004FF21FA00
0000000BF904F900
0000001FF407F800
0000003FF10AF600
0000004FD00EF300
0000003FB02FF000
0000001FB06FC000
0000000BE0AF8000
00000004C0EF4000
0000000003FF1000
000037ACEFFFFE70
005DFFDA7EF62100
09FF83001FE00000
6FF400006F900000
BFB00000BF200000
BFB00002FA000000
5FF3000AF2000000
09FD405F60000000
008FFDF700000000
0001452000000000
ENDCHAR
STARTCHAR J
ENCODING 74
SWIDTH 500 0
DWIDTH 12 0
BBX 17 23 -2 -5
BITMAP
000000014678865200
0000000DFFFFFFFF20
00000009743CF74500
00000000001FF10000
00000000004FD00000
00000000008FA00000
0000000000CF600000
0000000001FF300000
0000000005FE000000
0000000009FB000000
000000000DF8000000
000184001FF4000000
003EFE005FF1000000
01EFFA009FD0000000
0AFD3000DF90000000
2FF30002FF40000000
8F800007FD00000000
CF20000CF600000000
DE00004FE100000000
DF0000BF5000000000
8F3007F90000000000
1CD7AF800000000000
006983000000000000
ENDCHAR
STARTCHAR K
ENCODING 75
SWIDTH 497 0
DWIDTH 12 0
BBX 15 25 -2 -7
BITMAP
0000002740000550
000000EF50007FD0
000004FE00008FC0
000009F90000BF90
00000EF40002FF40
00003FE00009FC00
00007FA0003FF400
0000BF5001DF8000
0001FF100AFA0000
0004FB009FB00000
0008F71AF9000000
000BF9DD40000000
004EFFFCB9200000
007FD546DFC00000
006FA0003FF20000
00AF70002FF10000
00DF40005FD00000
02FF2000AF900000
06FE0001FF300000
09FC0006FD000000
0DFB0009F9000000
1FF9000AF8000000
04200005FD100000
000000008FEAB600
0000000003884000
ENDCHAR
STARTCHAR L
ENCODING 76
SWIDTH 492 0
DWIDTH 12 0
BBX 16 23 -3 -5
BITMAP
0000000000004881
000000000009FFF9
00000000006FD7FB
0000000001EF33FA
0000000007FC08F5
000000000BF74FC0
000000000EF9EE20
000000003FFFE300
0003B889DFFB2000
00008EFFFF800000
00000000DF400000
00000001FF000000
00000005FB000000
00000009F7000000
0000000EF2000000
0000003FB0000000
0000009F50000000
000001FC00000000
05CFFDF400000000
3FEADFFA20000500
5FB8E9CFE966BC00
1ADB4008EFFFF600
00000000169A6000
ENDCHAR
STARTCHAR M
ENCODING 77
SWIDTH 733 0
DWIDTH 18 0
BBX 21 23 -3 -5
BITMAP
0000000000540000003610
000000001DFB000009FF50
000000006FFC00003FFF40
00000000CEFC0000AFDF10
00000002FAEC0003FBCD00
00000007F6EC000AF4FA00
0000000CF2FC002FB5F700
0000002FD1FA009F48F400
0000006F93F901EC0CF100
000000BF64F806F51FC000
000001FF26F70DD04F9000
000004FE07F64F608F6000
004B07FA08F5BE10CF3000
01D60AF608F7F900FE0000
07E10DF308FEF304FC0000
0D902FE007FFD007F90000
2F605FB006FF900AF70000
5F40AF8003FF700DF50000
5F40EF4000BC201FF40000
5F65FE000000003FF50000
2FDDF9000000003FF90000
09FFE2000000000BFF7000
0035100000000000451000
ENDCHAR
STARTCHAR N
ENCODING 78
SWIDTH 541 0
DWIDTH 13 0
BBX 17 23 -1 -5
BITMAP
00000320000017A500
0000AFA00000CFFE10
0000FFC00006FD2F20
0003FFD0000CF52F10
0007FFE0002FE09D00
000AEBF0005FA4F500
000EBAF1009FBE9000
002F88F11CEFE70000
006F47F200EF100000
00AF15F201FD000000
00DD05F203FA000000
02FA04F306F7000000
06F704F408F5000000
0AF503F50BF2000000
0EF202F60EE0000000
2FF001F82FB0000000
6FC000FA6F80000000
9FB000DC9F50000000
CFA000BFEF10000000
EFB0007FFC00000000
EFC0003FF900000000
BFD0000CF300000000
130000011000000000
ENDCHAR
STARTCHAR O
ENCODING 79
SWIDTH 567 0
DWIDTH 14 0
BBX 13 23 0 -5
BITMAP
0000005CB73000
000009FFEEF300
00008FCC14FA00
0004FE2100FE00
000CF60000DF30
006FC00000CF40
00CF600000BF50
03FE100000BF60
09FA000000BF60
0DF5000000CF50
2FF2000000EF30
5FE0000001FF10
7FC0000004FE00
9FA0000007FA00
BF9000000BF600
BF8000001FF100
BF8000007FA000
AF800000DF3000
8FA00007FB0000
3FD0002EE20000
0CF403DF400000
02DFDFD4000000
00168610000000
ENDCHAR
STARTCHAR P
ENCODING 80
SWIDTH 552 0
DWIDTH 13 0
BBX 15 23 -1 -5
BITMAP
000000369AA82000
00006CFD98BFE400
002CFFF20007FE10
00AFAAF10000DF60
00580DC00000AF80
00002F800000BF90
00006F400000DF70
0000BF100002FF30
0000ED00000AFB00
0003F900004FF300
0007F60003EF5000
000BF3007EF50000
001FF37DFB300000
004FFFD940000000
008FA00000000000
00CF700000000000
01FF400000000000
05FF100000000000
09FC000000000000
0EF7000000000000
7FF2000000000000
DF90000000000000
0200000000000000
ENDCHAR
STARTCHAR Q
ENCODING 81
SWIDTH 583 0
DWIDTH 14 0
BBX 14 23 0 -5
BITMAP
00000027AA5000
000007FFBCF800
00008FE300BF20
0005FE20004F90
002EF600000FD0
009FC000000EF0
02FF5000000DF2
07FD0000000EF2
0CF90000001FF0
1FF50000004FD0
3FF20000007FA0
5FF0000000CF70
6FE0000001FF20
4FF1000007FC00
0DF500000DF600
05FE70005FD000
00495001DF6000
00167628FC0000
03DFEFFFE30000
0CF703FFD10000
0FF47EF8ED3000
0AFFFC302BFA60
00463000003640
ENDCHAR
STARTCHAR R
ENCODING 82
SWIDTH 560 0
DWIDTH 13 0
BBX 15 24 -1 -6
BITMAP
000000279BB93000
00005CFD98AFF700
001BFFF50004FF30
007FB8F30000BF90
002A0BE000008FB0
00000EB000008FC0
00004F800000AFA0
00008F400000EF60
0000CF100007FE10
0001FD00001EF500
0004FA0002DF9000
006EFE925DF90000
00EFF9EFFD500000
007FFFDED0000000
004FE108F3000000
008FB004F8000000
00BF8001FB000000
00FF5000FE000000
04FF1000FF100000
0AFC0000EF300000
2FF80000DF500000
8FD10000BFA01100
010000006FFFA000
0000000008C80000
ENDCHAR
STARTCHAR S
ENCODING 83
SWIDTH 474 0
DWIDTH 11 0
BBX 14 23 -2 -5
BITMAP
000000049BC930
000001BFE97DE3
00001CFB1005FA
00008FB00003FD
0001FF200005FC
0003FE00000AF9
0003FF10002FE3
0001FF70002510
00009FE3000000
00001EFE200000
000004FFD10000
0000006FF90000
0000000AFF1000
00000001FF5000
00000000AF8000
000000006F8000
03AB00004F6000
0EF700006F3000
1FF70000CD0000
0DFA0005F70000
07FF616EC00000
00CFFFFB100000
00058840000000
ENDCHAR
STARTCHAR T
ENCODING 84
SWIDTH 423 0
DWIDTH 10 0
BBX 13 23 0 -5
BITMAP
00124556654310
1CFFFFFFFFFFD0
4FFDA9FF655530
141005FD000000
000008F9000000
00000CF5000000
00001FF1000000
00004FC0000000
00008F80000000
0000CF40000000
0000FF10000000
0004FC00000000
0007F800000000
000BF500000000
000EF200000000
003FE000000000
006FC000000000
00AF9000000000
00DF6000000000
02FF4000000000
05FF1000000000
09FE0000000000
02410000000000
ENDCHAR
STARTCHAR U
ENCODING 85
SWIDTH 574 0
DWIDTH 14 0
BBX 15 23 0 -5
BITMAP
0000012000002530
0001BFA00002FF70
0006FF400007FF20
000BFE00000BFC00
001FF800000EF700
004FF300004FF300
009FD000008FD000
00DF900000BF9000
02FF400000FF4000
05FE000004FE0000
09FB000007FA0000
0CF600000AF60000
0FF200000EF30000
3FE000002FF00000
5FB000006FC00000
8F900000BFA00000
AF700002FF800000
BF600008FF600000
BF70002EFF500000
AFA000BEBF500000
5FF85BF48F700000
0AFFFD404FB00000
0035400001100000
ENDCHAR
STARTCHAR V
ENCODING 86
SWIDTH 503 0
DWIDTH 12 0
BBX 13 23 1 -5
BITMAP
00241000003500
03FF400000EF50
08FD000006FF30
0CF700000CF800
0FF200003FF100
3FE000009FA000
6FA00000EF5000
8F700004FE0000
AF500009F90000
CF30000EF40000
DF20004FE00000
EF10008F900000
EF1000DF400000
DF0003FE000000
CF1007F8000000
BF100CF2000000
9F202FB0000000
7F406F50000000
4F60BD00000000
1FA3F600000000
0BFED000000000
04FF5000000000
00560000000000
ENDCHAR
STARTCHAR W
ENCODING 87
SWIDTH 817 0
DWIDTH 20 0
BBX 20 23 0 -5
BITMAP
000015500000000028B1
0001EF80000400007FF3
0007FD00009F30005FF4
000DF60004FF20004FF3
003FE10009FE00003FF1
008F90000DFB00004FF0
00DF40001FF800004FD0
02FE00002FF400006FA0
06FA00003FE000008F80
09F600004FB00000BF40
0DF200005F800000EF10
0FE00000AF600003FC00
2FB00001FF400007F800
4F900006FF30000CF300
5F70000BFF20002FD000
6F60002FFF10006F7000
6F60008F9F1000CF1000
5F6001EB6F2004F90000
3F8008F45F400BE20000
0ED03FA03F806F700000
0AFCEE100EE9FC000000
03FFE30008FFD1000000
00362000006610000000
ENDCHAR
STARTCHAR X
ENCODING 88
SWIDTH 579 0
DWIDTH 14 0
BBX 18 23 -1 -5
BITMAP
0003BB400000002830
003EAEE1000003EFE2
00BA08F700001EFC20
01F702FB0000CFC100
02F900DE0007FE2000
00EF86DF203FF30000
007FFFCF40CF700000
0006B56F67FB000000
0000004FAFE2000000
0000002FFF60000000
0000000FFB00000000
0000002FE200000000
000000CFE000000000
000007FFF000000000
00002EECF100000000
0000BF78F300000000
0006FC06F600000000
002EF304F900000000
00BF9001FD00001000
07FE1000CF3001B100
7FF600007FB35D6000
9E9000000CFFE50000
000000000055100000
ENDCHAR
STARTCHAR Y
ENCODING 89
SWIDTH 532 0
DWIDTH 13 0
BBX 14 23 0 -5
BITMAP
00015710000385
000AFD00000EF7
000EF800003FF3
004FF200007FD0
008FC00000AF90
00CF700000DF40
01FF200002FF00
05FD000005FB00
08F900000AF800
0BF500001EF400
0EF200006FF000
1FE00000DFB000
3FD00008EF8000
2FE1006F9F4000
0DFB7AF78F1000
04EFFC40DB0000
00021003F70000
0000000AF20000
0210004FA00000
3EA003EE200000
BFFDCFF5000000
6FFFFD40000000
01553000000000
ENDCHAR
STARTCHAR Z
ENCODING 90
SWIDTH 455 0
DWIDTH 11 0
BBX 14 23 -2 -5
BITMAP
00000346776642
0000AFFFFFFFFC
0000FFCA8769FD
000061000008FB
00000000001EF5
0000000000AFC0
0000000005FF30
000000002EF800
00000000CFB000
00000009FD1000
0000006FE20000
000003FF400000
00002EF7000000
0001CFA0000000
0009FC00000000
005FE200000000
01EF4000000000
09F80000000000
2FD10000000000
9F7479AA985000
DFFFFFFFFFB000
AFDB99ACED2000
11000000000000
ENDCHAR
STARTCHAR bracketleft
ENCODING 91
SWIDTH 202 0
DWIDTH 5 0
BBX 9 23 -1 -3
BITMAP
000009ED20
00003FFC00
00008F4000
0000DC0000
0002F80000
0006F40000
000AE00000
000EB00000
003F700000
007F300000
00BE000000
00EA000000
03F7000000
06F3000000
0AE0000000
0DB0000000
1F80000000
5F40000000
8F10000000
BE00000000
ED00000000
FFC4000000
9A92000000
ENDCHAR
STARTCHAR backslash
ENCODING 92
SWIDTH 273 0
DWIDTH 7 0
BBX 5 19 1 -1
BITMAP
670000
FD0000
DF0000
BF1000
9F3000
6F5000
4F6000
2F8000
0EA000
0CD000
0AF000
08F300
06F600
03F900
01FC00
00EF10
00BF40
009F70
002510
ENDCHAR
STARTCHAR bracketright
ENCODING 93
SWIDTH 216 0
DWIDTH 5 0
BBX 9 23 -3 -3
BITMAP
000005CDA0
000004AFD0
0000000FB0
0000001F80
0000004F50
0000007F10
000000BD00
000000EA00
000002F700
000006F300
00000AE000
00000DB000
00002F7000
00006F4000
0000AF0000
0000EB0000
0003F70000
0007F30000
000BE00000
001F900000
008F500000
2FFE100000
3AA4000000
ENDCHAR
STARTCHAR asciicircum
ENCODING 94
SWIDTH 287 0
DWIDTH 7 0
BBX 9 10 -1 8
BITMAP
0000025300
00002EFB00
0000BEDC00
0004F7AE00
000DD1AF00
007F509F20
02EB008F40
0AF2006F60
4F80005F80
2300001510
ENDCHAR
STARTCHAR underscore
ENCODING 95
SWIDTH 439 0
DWIDTH 11 0
BBX 13 3 -3 -1
BITMAP
289ABBCCBB9730
8FFFFFFFFFFF70
23211000112300
ENDCHAR
STARTCHAR grave
ENCODING 96
SWIDTH 567 0
DWIDTH 14 0
BBX 5 4 6 13
BITMAP
240000
BFA100
29FD10
002930
ENDCHAR
STARTCHAR a
ENCODING 97
SWIDTH 435 0
DWIDTH 10 0
BBX 14 11 -1 -1
BITMAP
00002AC6000000
0004ECED000000
004FB0BD600000
01DE103F700000
07F7006F400064
0DF1009F1003D1
3FD001ED001D30
5FC00AFA01C600
4FF8CBBB1B9000
1DFF917FFA0000
01410004300000
ENDCHAR
STARTCHAR b
ENCODING 98
SWIDTH 415 0
DWIDTH 10 0
BBX 13 18 0 -1
BITMAP
0001BB00000000
0009FC00000000
001FF900000000
006FF600000000
00CFF100000000
02FFC000000000
07FF7000000000
0BFF2000000000
0EFB0293000000
3FF50DFA026B30
6FD00CFFFE9200
8F5001FB200000
9E0005F7000000
9D000BE1000000
9E004F60000000
6F33EB00000000
1DFFA100000000
01530000000000
ENDCHAR
STARTCHAR c
ENCODING 99
SWIDTH 363 0
DWIDTH 9 0
BBX 12 11 -1 -1
BITMAP
00018CC30000
002DF7CB0000
01DF45FB0000
07F709F40000
0DE101200037
2FB0000002D2
3F9000001D50
2FB00002D700
0CF5005E7000
04FFDDD40000
002896000000
ENDCHAR
STARTCHAR d
ENCODING 100
SWIDTH 483 0
DWIDTH 12 0
BBX 15 18 -1 -1
BITMAP
00000000007B1000
0000000002FF4000
0000000006FF4000
000000000AFF3000
000000000EFF0000
000000003FFB0000
000000007FF60000
00003750BFF10000
0009F8D6EF900000
009F505EFF200000
03F9002FF9000000
0AF1000AE1000460
0EA0000D80002C10
2F70007F4001D300
3F8006FF201C6000
1FD59D8F33D60000
08FFA12FFE500000
0032000471000000
ENDCHAR
STARTCHAR e
ENCODING 101
SWIDTH 372 0
DWIDTH 9 0
BBX 12 11 -1 -1
BITMAP
00004AC50000
0008F9FD0000
006F50EB0000
02EB07F30000
09F57F500016
0EFCD30000B5
1FF910000B80
1FF00001B900
0CF8005E8000
03EFEED40000
002784000000
ENDCHAR
STARTCHAR f
ENCODING 102
SWIDTH 325 0
DWIDTH 8 0
BBX 14 29 -3 -12
BITMAP
0000005A900000
000000BFD00000
0000009FC00000
0000009F900000
000000BF500000
000000EF100000
000002FB000000
000006F6000000
000009F2000000
00000EC0000110
00004F869CECA1
0001BFFB620000
000BFC20000000
000FF700000000
000AFA00000000
000CEFB0000000
001FA5F9000000
004F609F300000
008F202F900000
00CD000EC00000
01FA000EC00000
05F7001FA00000
08F3007F500000
0CE001EE000000
0FB00AF6000000
3FA2AFB0000000
4FFFFC10000000
1DFF9100000000
01410000000000
ENDCHAR
STARTCHAR g
ENCODING 103
SWIDTH 459 0
DWIDTH 11 0
BBX 14 22 -1 -12
BITMAP
00006A70010000
001BEAE69F1000
009F306DFA0000
03F9003FF70000
09F2000DF30005
0DE0000BE000A6
0FC0002FB00A90
0ED000BF81CA00
0BF85CDF9E8000
04FFF89FE50000
002415FD200000
00007FF9000000
0009E9F6000000
01BE49F2000000
09F50CE0000000
2FB01FB0000000
5F705F80000000
5F509F30000000
3F60EE00000000
0DC9F800000000
05FFF200000000
006B5000000000
ENDCHAR
STARTCHAR h
ENCODING 104
SWIDTH 465 0
DWIDTH 11 0
BBX 14 18 -1 -1
BITMAP
00003620000000
0000FF70000000
0000FF50000000
0002FF10000000
0005FB00000000
0009F700000000
000CF200000000
001FD015400000
004F84EFF40000
008F8D7CF70000
00BFC209F60000
00FE200CF20003
04F9001FC00079
07F5006F6006C0
0BF200AF108C10
0EE000DF7CB100
2FB000AFF80000
05300016200000
ENDCHAR
STARTCHAR i
ENCODING 105
SWIDTH 274 0
DWIDTH 7 0
BBX 9 17 0 -1
BITMAP
0000500000
000AF20000
000EE10000
0002100000
0000000000
0000000000
0014000000
04FD000000
0AF8000000
0EF3000000
3FD0000650
5F80004D10
7F4003E300
8F104E5000
6F57F60000
1CFE400000
0031000000
ENDCHAR
STARTCHAR j
ENCODING 106
SWIDTH 267 0
DWIDTH 6 0
BBX 14 27 -5 -11
BITMAP
00000000085000
000000008F8000
00000000AD2000
00000000100000
00000000000000
00000000000000
00000001100000
0000002FE00000
0000006FB00000
000000AF600000
000000EF100075
000003FC0006C1
000007F8007D10
00000AF409D200
00000DF2BB1000
00001FEE900000
00005FD4000000
0005EF60000000
006FFF30000000
04F9EE00000000
1EC3FA00000000
8F36F600000000
EC0AF200000000
F90EC000000000
C95F7000000000
6EDE1000000000
06930000000000
ENDCHAR
STARTCHAR k
ENCODING 107
SWIDTH 440 0
DWIDTH 11 0
BBX 14 18 -1 -1
BITMAP
00007A30000000
0002FF50000000
0003FF20000000
0004FD00000000
0007F800000000
000AF400000000
000DD000000000
002F9027500000
005F37FFF20000
009E7D6CF20000
00CDC10CB00000
01FD349B100031
05F2DFF50002C0
09D087EB001D40
0DA001F801B800
2F7005F62CA000
6F4005FFF90000
2500009A500000
ENDCHAR
STARTCHAR l
ENCODING 108
SWIDTH 218 0
DWIDTH 5 0
BBX 7 18 -1 -1
BITMAP
00003610
0001FF50
0002FF30
0004FE00
0007FA00
000BF600
000EF200
003FD000
006FA000
00AF6000
00EF2000
02FD0000
06F90000
09F50000
0DF10000
1FD00000
4F900000
06200000
ENDCHAR
STARTCHAR m
ENCODING 109
SWIDTH 717 0
DWIDTH 17 0
BBX 21 11 -1 -1
BITMAP
0000000130000300000000
003A807FF605EFA0000000
007FA9EDFA6FDFF0000000
00AFDB14FDE31FF1000000
00DFD105FF403FE0000A10
02FF5008F9007FA0007900
06FD000CF200AF6004D100
09F8001FB000EF303E3000
0DF4006F7001FF15E60000
1FE000AF4000EFFE500000
0610003200003871000000
ENDCHAR
STARTCHAR n
ENCODING 110
SWIDTH 461 0
DWIDTH 11 0
BBX 14 11 -1 -1
BITMAP
00000014200000
004EA5EFE10000
009FBE8EF40000
00DFE30BF40000
01FF400DF10018
04FA002FC00096
08F5006F9006B0
0CF100AF405D20
1FD000DF27E300
5F8000BFFD3000
34000017710000
ENDCHAR
STARTCHAR o
ENCODING 111
SWIDTH 393 0
DWIDTH 9 0
BBX 13 11 -1 -1
BITMAP
00016710000000
003EFDE3000000
00CF40AD000170
06FE007F204C40
0CFF307F6AC200
0FBDE9CFE70000
2F82ADFD100000
1F8005F7000000
0DC03ED1000000
06FEFD20000000
00475100000000
ENDCHAR
STARTCHAR p
ENCODING 112
SWIDTH 451 0
DWIDTH 11 0
BBX 16 21 -3 -11
BITMAP
0000031004200000
00009F93DFE20000
00007FCE8BF60000
0000AFE303F70000
0000EF5005F50025
0002FA000AF101C3
0005F5003FA00A70
0009F961CF30AA00
000DFFFEF84CB000
002FCFFFFFF80000
005F66A535200000
009F300000000000
00DE000000000000
02FB000000000000
06F8000000000000
09F5000000000000
0DF2000000000000
2FF0000000000000
6FC0000000000000
4F90000000000000
0100000000000000
ENDCHAR
STARTCHAR q
ENCODING 113
SWIDTH 462 0
DWIDTH 11 0
BBX 13 21 -1 -11
BITMAP
00001430020000
0005ECE7AF4000
005F805EDE0000
02ED002FFA0000
09F70009F60000
0EF3000BF20000
1FF0001FD00050
1FE0008F9005A0
0EF104EF503C10
08FDADAF22D300
006A92CD2D5000
000001FCE60000
000005FF600000
000009F7000000
00000DE0000000
00006FB0000000
0000DFA0000000
0002FF90000000
0001FF90000000
0000BF90000000
00001A70000000
ENDCHAR
STARTCHAR r
ENCODING 114
SWIDTH 406 0
DWIDTH 10 0
BBX 14 13 -2 -1
BITMAP
00000100000000
00009F50000000
0005FF90000000
0009FF62000000
0006FFFFB00000
000BE46DF20000
003F600DF10036
00BC006F9001D3
03F301ED100B70
0B9007F5009A00
3E100BF11AC100
A50008FDEB1000
2000019B600000
ENDCHAR
STARTCHAR s
ENCODING 115
SWIDTH 351 0
DWIDTH 8 0
BBX 7 12 0 -1
BITMAP
00038200
004FF700
00EFD100
00DFC000
04DBF100
1D35F800
9600EE10
10009F70
09704F90
4FD04F30
1EFCE500
03BA3000
ENDCHAR
STARTCHAR t
ENCODING 116
SWIDTH 301 0
DWIDTH 7 0
BBX 13 18 -2 -1
BITMAP
00000186000000
000007FC000000
00000CFA000000
00002FFC652000
8FFFFFFFFFFD10
1577CFF1013400
0000CFB0000000
0001FF60000000
0004FF10000000
0007FB00000000
000AF500000000
000DD00000A200
000F7000079000
002F20005D1000
004F1005E20000
002F817E400000
000BFFE4000000
00006710000000
ENDCHAR
STARTCHAR u
ENCODING 117
SWIDTH 468 0
DWIDTH 11 0
BBX 14 10 0 -1
BITMAP
05E8004F800000
0DF200BF700000
4FC001FF500000
8F7004FF1000A2
CF2007FB000690
EE0008F4004D10
FE000BF303D300
DF63AEF85E5000
4EFFD2CFE40000
02540014100000
ENDCHAR
STARTCHAR v
ENCODING 118
SWIDTH 427 0
DWIDTH 10 0
BBX 13 11 0 -1
BITMAP
00200003500000
2EC0004FE00000
8F9000DFA00000
AF6003FF300570
BF3004FC35A900
BF2008FEDA4000
AF203F60000000
8F51DA00000000
5FBCC100000000
0DFD1000000000
02710000000000
ENDCHAR
STARTCHAR w
ENCODING 119
SWIDTH 646 0
DWIDTH 16 0
BBX 18 11 0 -1
BITMAP
003100282000310000
0AF500CF5009F60000
1FF102FF203FF40000
5FC005FB005FE00038
8F8006F5004FD449B2
AF4006E0007FFEB600
BF10099000CE100000
BE002EC004F7000000
9F12C5F41DD0000000
4FEF608FED20000000
047300045100000000
ENDCHAR
STARTCHAR x
ENCODING 120
SWIDTH 399 0
DWIDTH 10 0
BBX 13 11 -2 -1
BITMAP
00197000282000
001DF202DF8000
0008F71CF90000
0002FBBF900000
0000CFFA000000
00009FB0000000
0005FF80000650
004FCCD0008B00
03ED17F85CC100
1DD202EFFA1000
07200036300000
ENDCHAR
STARTCHAR y
ENCODING 121
SWIDTH 406 0
DWIDTH 10 0
BBX 10 21 -1 -11
BITMAP
0011000031
02FF2009F9
02FF1008F8
06FB000BF4
0AF6001FE0
0EF1008FA0
3FB002EF50
5F900BFF10
4FC2AEED00
1DFFF6F900
027834F600
000008F200
00000CE000
00001FB000
00005F8000
00009F5000
0000DF2000
0002FE0000
0006FB0000
0004F70000
0000100000
ENDCHAR
STARTCHAR z
ENCODING 122
SWIDTH 448 0
DWIDTH 11 0
BBX 14 21 -1 -11
BITMAP
00002467860000
0005FFFFFF3000
0008C731DC0000
00000004F60000
0000000DD00000
0000009F400032
000006F80002C1
00007FFCD13D30
0001FF85FAD300
00008506FB2000
000006DEF20000
0002CE5BE00000
003EC12F900000
02EC108F400000
0BE101ED000000
4F6008F7000000
9F101EE1000000
BF00AF60000000
AF7AFB00000000
5FFFC100000000
03650000000000
ENDCHAR
STARTCHAR braceleft
ENCODING 123
SWIDTH 243 0
DWIDTH 6 0
BBX 9 23 -1 -3
BITMAP
0000006CB0
00000BFF70
00007FE810
0000CE2000
0000FB0000
0000EA0000
0000DB0000
0000DB0000
0001F90000
0008F30000
02DE600000
03EB000000
005F300000
003F400000
006F200000
01DB000000
07F3000000
1E90000000
5F50000000
7FA0000000
5FFB100000
0AFE000000
0078000000
ENDCHAR
STARTCHAR bar
ENCODING 124
SWIDTH 253 0
DWIDTH 6 0
BBX 6 19 0 -1
BITMAP
000049
0001FC
0005F8
0008F3
000CE0
001FA0
004F60
007F20
00BD00
00EA00
03F700
07F400
0BF100
0ED000
3FA000
6F8000
AF5000
DF3000
530000
ENDCHAR
STARTCHAR braceright
ENCODING 125
SWIDTH 243 0
DWIDTH 6 0
BBX 10 23 -3 -3
BITMAP
000002C400
000006FF50
000004DFE0
0000001EF1
0000000CE0
0000002F80
000000AE10
000003F700
000008F100
00000AC000
000009E100
000002EC00
00001CE800
0000AE2000
0000FA0000
0002F60000
0002F60000
0001F80000
0002F80000
0008F60000
06BFE10000
0EFE400000
3C82000000
ENDCHAR
STARTCHAR asciitilde
ENCODING 126
SWIDTH 329 0
DWIDTH 8 0
BBX 10 3 -1 7
BITMAP
06AB8401A3
9FFEFFFFF3
4920269930
ENDCHAR
STARTCHAR uni00A0
ENCODING 160
SWIDTH 280 0
DWIDTH 7 0
BBX 1 1 0 0
BITMAP
00
ENDCHAR
STARTCHAR exclamdown
ENCODING 161
SWIDTH 249 0
DWIDTH 6 0
BBX 8 19 -1 -1
BITMAP
00000692
00008FF5
00006A50
00000000
00005D20
0000EE00
0004FA00
0008F700
000CF300
001FF000
005FC000
009F8000
00DF5000
02FF1000
07FD0000
0BFA0000
0EF60000
4FF30000
38400000
ENDCHAR
STARTCHAR cent
ENCODING 162
SWIDTH 322 0
DWIDTH 8 0
BBX 9 19 -1 -1
BITMAP
0000001300
0000008B00
000000C700
00004CEE50
0005F906D0
003FA03EF0
00BE10CFD0
04F800CF70
0AF2003400
0EC0000000
1F90000000
1F70000000
0F80000100
0CC0009300
05F96B6000
007FC50000
003F300000
007D000000
0021000000
ENDCHAR
STARTCHAR sterling
ENCODING 163
SWIDTH 318 0
DWIDTH 8 0
BBX 11 16 -2 1
BITMAP
000000044100
000003CEDD10
00001DA00D60
00007E101F60
0000BB06DF20
0000F70AD500
0003F4000000
0007F1000000
01BDF9940000
008FDCB10000
004F50000000
009E00000000
00E800000000
07E123420000
2FDEFFFF1000
098654350000
ENDCHAR
STARTCHAR currency
ENCODING 164
SWIDTH 347 0
DWIDTH 8 0
BBX 10 9 -1 4
BITMAP
0066000064
007F5988F4
000CFACE40
000C706B00
003E009900
006E15F300
05EEFEE800
2F80206F20
0300000600
ENDCHAR
STARTCHAR yen
ENCODING 165
SWIDTH 326 0
DWIDTH 8 0
BBX 10 15 0 1
BITMAP
02A3000194
05F3000AE1
03F5002F60
01F700BC00
00CA06F300
008E4F6000
003FF80000
000EB00000
069FC92000
4ACFAA1000
26CF840000
ABFDB60000
03F6000000
07F2000000
0450000000
ENDCHAR
STARTCHAR brokenbar
ENCODING 166
SWIDTH 253 0
DWIDTH 6 0
BBX 6 19 0 -1
BITMAP
000049
0001FC
0005F8
0009F4
000CE0
001FB0
004F70
008F30
001200
000000
02B300
07F300
0BF100
0ED000
3FA000
6F8000
AF5000
DF3000
530000
ENDCHAR
STARTCHAR section
ENCODING 167
SWIDTH 297 0
DWIDTH 7 0
BBX 10 19 -1 -1
BITMAP
0000179930
0003D905E2
001DC004F5
004F600BF2
002F901630
0007F30000
00008E4000
004CDBE200
04F900E800
0BE000DA00
0BE003F700
05F77E8000
006FC30000
0004E80000
05505F4000
8F302F8000
AD006F5000
4E45E90000
0278400000
ENDCHAR
STARTCHAR dieresis
ENCODING 168
SWIDTH 567 0
DWIDTH 14 0
BBX 7 3 5 13
BITMAP
4B707B30
DF52FE30
11001000
ENDCHAR
STARTCHAR copyright
ENCODING 169
SWIDTH 456 0
DWIDTH 11 0
BBX 12 13 0 5
BITMAP
000004763000
0004DC87CB10
005F60121BC0
03F606EE61E5
0BB05F47C0A9
3F41E808608B
6F16E100009B
8E08B00010D9
6E06D00813F3
2F41DCC30CA0
0AC11510AD10
01BD757DA100
000489830000
ENDCHAR
STARTCHAR ordfeminine
ENCODING 170
SWIDTH 373 0
DWIDTH 9 0
BBX 12 13 -2 -1
BITMAP
000003840000
00007FEF1000
0006F47D6000
003F800D8000
00AE102F6000
01FA005F2002
05F801CE003A
05FA3BCC04C1
02FFF83FBC20
004620056000
024566654000
1EFFFFFFD000
396543331000
ENDCHAR
STARTCHAR guillemotleft
ENCODING 171
SWIDTH 346 0
DWIDTH 8 0
BBX 9 11 -1 -1
BITMAP
0000220040
0005E31C90
004F51CC00
03E90AE200
2EC09F4000
CF35FA0000
6F71DE0000
0CD05F5000
03F50BB000
008C03F200
0014004100
ENDCHAR
STARTCHAR logicalnot
ENCODING 172
SWIDTH 512 0
DWIDTH 12 0
BBX 13 7 -1 3
BITMAP
01678999987630
0DFFFFFFFFFFC0
16431100011E90
00000000004F50
00000000008F10
0000000000E800
00000000001000
ENDCHAR
STARTCHAR sfthyphen
ENCODING 173
SWIDTH 353 0
DWIDTH 8 0
BBX 10 3 -1 6
BITMAP
0245566540
1EFFFFFFE1
4965443320
ENDCHAR
STARTCHAR registered
ENCODING 174
SWIDTH 456 0
DWIDTH 11 0
BBX 12 13 0 5
BITMAP
000004763000
0004DC87CB10
005F61441BC0
03F67F9C71E5
0BB05E16B0A9
3F403C0C708B
6F10BDBA009B
8E00CAE100D9
6E01F2A603F3
2F47D05E5CA0
0AC10005AD10
01BD757DA100
000489830000
ENDCHAR
STARTCHAR macron
ENCODING 175
SWIDTH 567 0
DWIDTH 14 0
BBX 6 2 5 14
BITMAP
29AAA9
8FEDDC
ENDCHAR
STARTCHAR degree
ENCODING 176
SWIDTH 144 0
DWIDTH 3 0
BBX 4 4 1 13
BITMAP
0010
2DD6
8989
3BA1
ENDCHAR
STARTCHAR twosuperior
ENCODING 178
SWIDTH 268 0
DWIDTH 6 0
BBX 8 12 0 6
BITMAP
0003AC80
005F59F3
00EA06F4
01D809F1
00001EA0
0000AD10
0007F400
008F5000
09E40000
6F988500
8FFFFF00
15102600
ENDCHAR
STARTCHAR threesuperior
ENCODING 179
SWIDTH 262 0
DWIDTH 6 0
BBX 8 12 0 6
BITMAP
0007BB40
00BE7AF1
04F705F3
03FA0AE0
00106F60
0019F800
004CCE20
00001F60
15204F40
7F50BC00
3FEDE300
02771000
ENDCHAR
STARTCHAR acute
ENCODING 180
SWIDTH 567 0
DWIDTH 14 0
BBX 5 4 6 13
BITMAP
000400
01AF40
4DFA10
993000
ENDCHAR
STARTCHAR mu
ENCODING 181
SWIDTH 453 0
DWIDTH 11 0
BBX 14 14 -3 -5
BITMAP
00006700193000
0006F7009F5000
000CF200EF3000
002FC003FE1000
006F7006FA0004
00AF4007F30039
00DF300AF201C2
02FFA5ACF83B70
06FDFFB19FF900
0AF41100032000
0DE00000000000
3FB00000000000
8F500000000000
96000000000000
ENDCHAR
STARTCHAR paragraph
ENCODING 182
SWIDTH 411 0
DWIDTH 10 0
BBX 12 19 0 -1
BITMAP
000000182260
000279BFADD8
008FFFFFFFE6
07FFFFF95F30
1EFFFFF57E00
3FFFFFF1AB00
3FFFFFD0D800
1DFFFF91F400
03EFFF55F100
0016BF28D000
00009E0BA000
0000CA0E6000
0001F72F3000
0004F35E0000
0008E08B0000
000CB0C80000
002F72F40000
008F48D00000
005304100000
ENDCHAR
STARTCHAR periodcentered
ENCODING 183
SWIDTH 168 0
DWIDTH 4 0
BBX 4 4 0 6
BITMAP
0130
5EF6
AFB1
0100
ENDCHAR
STARTCHAR cedilla
ENCODING 184
SWIDTH 567 0
DWIDTH 14 0
BBX 5 7 6 -4
BITMAP
023000
1E8000
6F8400
37CF40
008F30
6CC400
320000
ENDCHAR
STARTCHAR onesuperior
ENCODING 185
SWIDTH 150 0
DWIDTH 4 0
BBX 5 12 0 6
BITMAP
001830
00BF70
009F30
008E00
00BB00
00E700
03F300
07E000
0BB000
1F8000
3F8000
052000
ENDCHAR
STARTCHAR ordmasculine
ENCODING 186
SWIDTH 319 0
DWIDTH 8 0
BBX 11 13 -2 -1
BITMAP
000013100000
0005EFE40000
001EC16E1030
009F803F45B0
00EEC13FCB10
02F6DFDF8000
03F415EC0000
01F605F50000
00AEAF900000
001894000000
025666520000
3FFFFFF70000
485433300000
ENDCHAR
STARTCHAR guillemotright
ENCODING 187
SWIDTH 346 0
DWIDTH 8 0
BBX 10 11 -2 -1
BITMAP
0041022000
00C806D100
005F21E800
000EB08F30
0008F51FB0
0004FB0CF3
001CE26F80
009E33EA00
06F41DB000
3E50AB1000
3201400000
ENDCHAR
STARTCHAR onequarter
ENCODING 188
SWIDTH 579 0
DWIDTH 14 0
BBX 15 19 -1 -1
BITMAP
0000840000003910
000AF8000005F800
0008F400001EC000
0007F10000BE2000
000AC00006F50000
000D80002E900000
002F4000BD100000
005F1007F3028900
00AC003F800CFB00
00EA00CC009EE700
02F908F307F4F400
00433F805F64F100
0001DD05FA4AE200
0009F406FFEFF700
004F9000411F9200
01DE1000005F5000
0AF60000009F3000
5FC0000000BF2000
4400000000340000
ENDCHAR
STARTCHAR onehalf
ENCODING 189
SWIDTH 603 0
DWIDTH 14 0
BBX 15 19 -1 -1
BITMAP
0000750000003820
0009FA000003EA00
0006F600001DD100
0005F200009F3000
0008D00004F70000
000CA0001DB00000
000F6000AE200000
004F2005F507CB40
008E002EA0BC3DC0
00DC00BD16F40DD0
00FB06F405D31FA0
00432E9000007F30
0000BE100002E800
0007F500001DB000
002FB00002DC1000
00CF20002EB10000
08F70000CE898300
3FD10000EFFFF900
3410000033003300
ENDCHAR
STARTCHAR threequarters
ENCODING 190
SWIDTH 669 0
DWIDTH 16 0
BBX 16 19 0 -1
BITMAP
0007BB4000000283
00BE7AF100003EB0
04F705F30000CE10
03FA0AE00008F400
00106F60004F8000
0019F80001DC0000
004CCE2009E20000
00001F604F6017A1
15204F41EA00AFE0
7F50BC0AE107FDA0
3FEDE35F505F6D60
027711EA04F82F30
00000BE13EC49F30
00006F604FFFFFA0
0002EB000320EB30
000BF2000002F700
007F80000006F600
02FD10000008F500
0351000000024000
ENDCHAR
STARTCHAR questiondown
ENCODING 191
SWIDTH 413 0
DWIDTH 10 0
BBX 13 19 -2 -1
BITMAP
0000000004BA10
000000001FFF20
00000000079400
00000000003000
000000001CD000
000000007FA000
00000000BF6000
00000000EF2000
0000017BFC0000
00007EFB720000
000AFA20000000
00AF8000000000
05FC0000000000
0CF50000440000
1FE00000AF6000
3FD00000CF7000
1EF40008FE2000
05FFCBEFB20000
0027AA73000000
ENDCHAR
STARTCHAR Agrave
ENCODING 192
SWIDTH 552 0
DWIDTH 13 0
BBX 16 29 -3 -6
BITMAP
0000000000034000
00000000000DFA10
000000000002AFC1
00000000000002A2
0000000000000000
0000000000038930
00000000009FDFC0
000000000AF60BE0
000000006F600BC0
00000002FB000EA0
0000000AF3003F80
0000003FC0006F60
0000009F60009F30
000001EE1000DF10
000006FA0001FD00
00000BF50004FB00
00002FE10007F800
00007FD6776BF600
0038EFFFFFFFFF90
0BEDFF75457FFA00
0108FD00002FE000
000DF900005FC000
004FF500007FA000
009FF100009F9000
01EFC00000BF9000
07FF600000BFA000
1EFA000000AFD000
23100000008FF400
0000000000361000
ENDCHAR
STARTCHAR Aacute
ENCODING 193
SWIDTH 552 0
DWIDTH 13 0
BBX 16 29 -3 -6
BITMAP
0000000000000040
0000000000001BF3
000000000005EF90
00000000000A9200
0000000000000000
0000000000038930
00000000009FDFC0
000000000AF60BE0
000000006F600BC0
00000002FB000EA0
0000000AF3003F80
0000003FC0006F60
0000009F60009F30
000001EE1000DF10
000006FA0001FD00
00000BF50004FB00
00002FE10007F800
00007FD6776BF600
0038EFFFFFFFFF90
0BEDFF75457FFA00
0108FD00002FE000
000DF900005FC000
004FF500007FA000
009FF100009F9000
01EFC00000BF9000
07FF600000BFA000
1EFA000000AFD000
23100000008FF400
0000000000361000
ENDCHAR
STARTCHAR Acircumflex
ENCODING 194
SWIDTH 552 0
DWIDTH 13 0
BBX 17 28 -3 -6
BITMAP
000000000000166000
000000000002DEF400
00000000005E91DD10
000000000033001520
000000000003893000
00000000009FDFC000
000000000AF60BE000
000000006F600BC000
00000002FB000EA000
0000000AF3003F8000
0000003FC0006F6000
0000009F60009F3000
000001EE1000DF1000
000006FA0001FD0000
00000BF50004FB0000
00002FE10007F80000
00007FD6776BF60000
0038EFFFFFFFFF9000
0BEDFF75457FFA0000
0108FD00002FE00000
000DF900005FC00000
004FF500007FA00000
009FF100009F900000
01EFC00000BF900000
07FF600000BFA00000
1EFA000000AFD00000
23100000008FF40000
000000000036100000
ENDCHAR
STARTCHAR Atilde
ENCODING 195
SWIDTH 552 0
DWIDTH 13 0
BBX 18 27 -3 -6
BITMAP
00000000005BB944B2
0000000001FB9CFFB0
000000000020001100
000000000003893000
00000000009FDFC000
000000000AF60BE000
000000006F600BC000
00000002FB000EA000
0000000AF3003F8000
0000003FC0006F6000
0000009F60009F3000
000001EE1000DF1000
000006FA0001FD0000
00000BF50004FB0000
00002FE10007F80000
00007FD6776BF60000
0038EFFFFFFFFF9000
0BEDFF75457FFA0000
0108FD00002FE00000
000DF900005FC00000
004FF500007FA00000
009FF100009F900000
01EFC00000BF900000
07FF600000BFA00000
1EFA000000AFD00000
23100000008FF40000
000000000036100000
ENDCHAR
STARTCHAR Adieresis
ENCODING 196
SWIDTH 552 0
DWIDTH 13 0
BBX 17 27 -3 -6
BITMAP
000000000008B31990
00000000003FD27FB0
000000000002000100
000000000003893000
00000000009FDFC000
000000000AF60BE000
000000006F600BC000
00000002FB000EA000
0000000AF3003F8000
0000003FC0006F6000
0000009F60009F3000
000001EE1000DF1000
000006FA0001FD0000
00000BF50004FB0000
00002FE10007F80000
00007FD6776BF60000
0038EFFFFFFFFF9000
0BEDFF75457FFA0000
0108FD00002FE00000
000DF900005FC00000
004FF500007FA00000
009FF100009F900000
01EFC00000BF900000
07FF600000BFA00000
1EFA000000AFD00000
23100000008FF40000
000000000036100000
ENDCHAR
STARTCHAR Aring
ENCODING 197
SWIDTH 552 0
DWIDTH 13 0
BBX 15 27 -3 -6
BITMAP
0000000000001410
000000000001DBB0
000000000004D6B0
000000000004EF40
00000000009FDFD0
0000000009F60BE0
000000007F600BC0
00000002FB000EA0
0000000AF3003F80
0000003FC0006F60
0000009F60009F30
000001EE1000DF10
000006FA0001FD00
00000BF50004FB00
00002FE10007F800
00007FD6776BF600
0038EFFFFFFFFF90
0BEDFF75457FFA00
0108FD00002FE000
000DF900005FC000
004FF500007FA000
009FF100009F9000
01EFC00000BF9000
07FF600000BFA000
1EFA000000AFD000
23100000008FF400
0000000000361000
ENDCHAR
STARTCHAR AE
ENCODING 198
SWIDTH 869 0
DWIDTH 21 0
BBX 25 24 -3 -6
BITMAP
00000000000389300048994000
00000000009FDFC05DFB89F700
000000000AF60BE8FD3000CF10
000000006F600BFFE20000BF30
00000002FB000EFF600001EF10
0000000AF3003FFE000008FB00
0000003FC0006FFC00008FF400
0000009F60009FFB0000496000
000001EE1000DFFD0000000000
000006FA0001FEFF5000000000
00000BF50004FB6FE552000000
00002FE10007F83CFFFC000000
00007FD6776BFDFA3482000000
0038EFFFFFFFFF800000000000
0BEDFF75457FFC000000000000
0108FD00002FF5000000010000
000DF900005FF20000000A2000
004FF500007FF30000004D0000
009FF100009FF7000001D50000
01EFC00000BFFE20002DB00000
07FF600000BFFFE868EC100000
1EFA000000AFFDFFFF91000000
23100000008FF4354100000000
00000000003610000000000000
ENDCHAR
STARTCHAR Ccedilla
ENCODING 199
SWIDTH 548 0
DWIDTH 13 0
BBX 14 28 0 -10
BITMAP
000000038AA400
000001AFC8CF60
00002DF8001FD0
0001DF90000EF3
000AFD00001FF4
004FF400005FF3
00BFC00000CFE0
02FF500008FF80
09FE000001A900
0EF90000000000
3FF50000000000
7FF20000000000
BFD00000000000
DFB00000000000
EFA00000000000
FF800000000000
EF800000000000
CF900000039000
7FD000001D4000
2FF50003DA0000
07FF969FB00000
007FFFF8000000
0005F610000000
000AD510000000
00079FD0000000
00000CD0000000
0007DB20000000
00152000000000
ENDCHAR
STARTCHAR Egrave
ENCODING 200
SWIDTH 523 0
DWIDTH 13 0
BBX 14 28 -1 -5
BITMAP
00000000150000
000000008FC200
0000000017EE30
00000000001850
00000000000000
0000000159A820
0000008EEA7BE3
00001CFA1001FB
0000CFB00001FD
0007FF200005FB
000DFA00000CF7
002FF70002BFD1
003FF600006A30
001FF800000000
0008FE10000000
0000AFB4510000
00005EFFF70000
002CF726700000
03EE4000000000
0DF70000000000
5FE10000000200
9FC00000001C00
BFD00000009800
9FF2000005E200
4FFB00005F7000
09FFC76BF90000
007EFFFE600000
00014540000000
ENDCHAR
STARTCHAR Eacute
ENCODING 201
SWIDTH 523 0
DWIDTH 13 0
BBX 14 28 -1 -5
BITMAP
00000000000130
00000000003DE0
0000000007FE60
000000001B7100
00000000000000
0000000159A820
0000008EEA7BE3
00001CFA1001FB
0000CFB00001FD
0007FF200005FB
000DFA00000CF7
002FF70002BFD1
003FF600006A30
001FF800000000
0008FE10000000
0000AFB4510000
00005EFFF70000
002CF726700000
03EE4000000000
0DF70000000000
5FE10000000200
9FC00000001C00
BFD00000009800
9FF2000005E200
4FFB00005F7000
09FFC76BF90000
007EFFFE600000
00014540000000
ENDCHAR
STARTCHAR Ecircumflex
ENCODING 202
SWIDTH 523 0
DWIDTH 13 0
BBX 15 28 -1 -5
BITMAP
0000000000274000
0000000004EEE100
000000007F63FA00
0000000132002510
0000000000000000
0000000159A82000
0000008EEA7BE300
00001CFA1001FB00
0000CFB00001FD00
0007FF200005FB00
000DFA00000CF700
002FF70002BFD100
003FF600006A3000
001FF80000000000
0008FE1000000000
0000AFB451000000
00005EFFF7000000
002CF72670000000
03EE400000000000
0DF7000000000000
5FE1000000020000
9FC00000001C0000
BFD0000000980000
9FF2000005E20000
4FFB00005F700000
09FFC76BF9000000
007EFFFE60000000
0001454000000000
ENDCHAR
STARTCHAR Edieresis
ENCODING 203
SWIDTH 523 0
DWIDTH 13 0
BBX 15 26 -1 -5
BITMAP
000000005B608A20
00000000EE53FD20
0000000021001000
0000000159A82000
0000008EEA7BE300
00001CFA1001FB00
0000CFB00001FD00
0007FF200005FB00
000DFA00000CF700
002FF70002BFD100
003FF600006A3000
001FF80000000000
0008FE1000000000
0000AFB451000000
00005EFFF7000000
002CF72670000000
03EE400000000000
0DF7000000000000
5FE1000000020000
9FC00000001C0000
BFD0000000980000
9FF2000005E20000
4FFB00005F700000
09FFC76BF9000000
007EFFFE60000000
0001454000000000
ENDCHAR
STARTCHAR Igrave
ENCODING 204
SWIDTH 537 0
DWIDTH 13 0
BBX 15 28 -2 -5
BITMAP
0000000000420000
0000000001FF7000
00000000004BF900
0000000000004A00
0000000000000000
0000000000278100
0000000008FDF900
000000008FC1FA00
00000004FF21FA00
0000000BF904F900
0000001FF407F800
0000003FF10AF600
0000004FD00EF300
0000003FB02FF000
0000001FB06FC000
0000000BE0AF8000
00000004C0EF4000
0000000003FF1000
000037ACEFFFFE70
005DFFDA7EF62100
09FF83001FE00000
6FF400006F900000
BFB00000BF200000
BFB00002FA000000
5FF3000AF2000000
09FD405F60000000
008FFDF700000000
0001452000000000
ENDCHAR
STARTCHAR Iacute
ENCODING 205
SWIDTH 537 0
DWIDTH 13 0
BBX 15 28 -2 -5
BITMAP
0000000000000220
0000000000006EA0
00000000001AFD30
00000000004B5000
0000000000000000
0000000000278100
0000000008FDF900
000000008FC1FA00
00000004FF21FA00
0000000BF904F900
0000001FF407F800
0000003FF10AF600
0000004FD00EF300
0000003FB02FF000
0000001FB06FC000
0000000BE0AF8000
00000004C0EF4000
0000000003FF1000
000037ACEFFFFE70
005DFFDA7EF62100
09FF83001FE00000
6FF400006F900000
BFB00000BF200000
BFB00002FA000000
5FF3000AF2000000
09FD405F60000000
008FFDF700000000
0001452000000000
ENDCHAR
STARTCHAR Icircumflex
ENCODING 206
SWIDTH 537 0
DWIDTH 13 0
BBX 17 27 -2 -5
BITMAP
000000000000274000
000000000005EEE100
00000000008E63F900
000000000132003510
000000000027810000
0000000008FDF90000
000000008FC1FA0000
00000004FF21FA0000
0000000BF904F90000
0000001FF407F80000
0000003FF10AF60000
0000004FD00EF30000
0000003FB02FF00000
0000001FB06FC00000
0000000BE0AF800000
00000004C0EF400000
0000000003FF100000
000037ACEFFFFE7000
005DFFDA7EF6210000
09FF83001FE0000000
6FF400006F90000000
BFB00000BF20000000
BFB00002FA00000000
5FF3000AF200000000
09FD405F6000000000
008FFDF70000000000
000145200000000000
ENDCHAR
STARTCHAR Idieresis
ENCODING 207
SWIDTH 537 0
DWIDTH 13 0
BBX 16 26 -2 -5
BITMAP
00000000008B3199
0000000003FD27FB
0000000000200010
0000000000278100
0000000008FDF900
000000008FC1FA00
00000004FF21FA00
0000000BF904F900
0000001FF407F800
0000003FF10AF600
0000004FD00EF300
0000003FB02FF000
0000001FB06FC000
0000000BE0AF8000
00000004C0EF4000
0000000003FF1000
000037ACEFFFFE70
005DFFDA7EF62100
09FF83001FE00000
6FF400006F900000
BFB00000BF200000
BFB00002FA000000
5FF3000AF2000000
09FD405F60000000
008FFDF700000000
0001452000000000
ENDCHAR
STARTCHAR Eth
ENCODING 208
SWIDTH 632 0
DWIDTH 15 0
BBX 16 23 -1 -5
BITMAP
0000016997300000
00009FFFFFFC3000
0006FE8434AFE300
000591000007FD10
000007D50000CF70
00003FF400007FD0
00005FF100003FF1
00007FD000002FF4
0000AFA000002FF4
0000DF6000004FF4
0689FFB970006FF3
6FFFFFEE90008FF1
4427FB000000CFB0
000AF7000002FF60
000EF3000007FE10
003FE000001EF700
007F9000008FD100
00BF500003FF4000
01FF10002EF70000
07FB0004DF800000
1EFC34AFE6000000
05DFFFF920000000
0004541000000000
ENDCHAR
STARTCHAR Ntilde
ENCODING 209
SWIDTH 541 0
DWIDTH 13 0
BBX 17 26 -1 -5
BITMAP
00000019CB73590000
0000008E9AEFF60000
000000110002100000
00000320000017A500
0000AFA00000CFFE10
0000FFC00006FD2F20
0003FFD0000CF52F10
0007FFE0002FE09D00
000AEBF0005FA4F500
000EBAF1009FBE9000
002F88F11CEFE70000
006F47F200EF100000
00AF15F201FD000000
00DD05F203FA000000
02FA04F306F7000000
06F704F408F5000000
0AF503F50BF2000000
0EF202F60EE0000000
2FF001F82FB0000000
6FC000FA6F80000000
9FB000DC9F50000000
CFA000BFEF10000000
EFB0007FFC00000000
EFC0003FF900000000
BFD0000CF300000000
130000011000000000
ENDCHAR
STARTCHAR Ograve
ENCODING 210
SWIDTH 567 0
DWIDTH 14 0
BBX 13 28 0 -5
BITMAP
00000001500000
00000008FC2000
000000017EE300
00000000018500
00000000000000
0000005CB73000
000009FFEEF300
00008FCC14FA00
0004FE2100FE00
000CF60000DF30
006FC00000CF40
00CF600000BF50
03FE100000BF60
09FA000000BF60
0DF5000000CF50
2FF2000000EF30
5FE0000001FF10
7FC0000004FE00
9FA0000007FA00
BF9000000BF600
BF8000001FF100
BF8000007FA000
AF800000DF3000
8FA00007FB0000
3FD0002EE20000
0CF403DF400000
02DFDFD4000000
00168610000000
ENDCHAR
STARTCHAR Oacute
ENCODING 211
SWIDTH 567 0
DWIDTH 14 0
BBX 13 28 0 -5
BITMAP
00000000003100
0000000008F700
00000002CFC200
00000006A40000
00000000000000
0000005CB73000
000009FFEEF300
00008FCC14FA00
0004FE2100FE00
000CF60000DF30
006FC00000CF40
00CF600000BF50
03FE100000BF60
09FA000000BF60
0DF5000000CF50
2FF2000000EF30
5FE0000001FF10
7FC0000004FE00
9FA0000007FA00
BF9000000BF600
BF8000001FF100
BF8000007FA000
AF800000DF3000
8FA00007FB0000
3FD0002EE20000
0CF403DF400000
02DFDFD4000000
00168610000000
ENDCHAR
STARTCHAR Ocircumflex
ENCODING 212
SWIDTH 567 0
DWIDTH 14 0
BBX 13 28 0 -5
BITMAP
00000000166000
00000002CEF500
0000004E91DD10
00000033001520
00000000000000
0000005CB73000
000009FFEEF300
00008FCC14FA00
0004FE2100FE00
000CF60000DF30
006FC00000CF40
00CF600000BF50
03FE100000BF60
09FA000000BF60
0DF5000000CF50
2FF2000000EF30
5FE0000001FF10
7FC0000004FE00
9FA0000007FA00
BF9000000BF600
BF8000001FF100
BF8000007FA000
AF800000DF3000
8FA00007FB0000
3FD0002EE20000
0CF403DF400000
02DFDFD4000000
00168610000000
ENDCHAR
STARTCHAR Otilde
ENCODING 213
SWIDTH 567 0
DWIDTH 14 0
BBX 13 26 0 -5
BITMAP
0000019CB73590
000008E9AEFF60
00000110002100
0000005CB73000
000009FFEEF300
00008FCC14FA00
0004FE2100FE00
000CF60000DF30
006FC00000CF40
00CF600000BF50
03FE100000BF60
09FA000000BF60
0DF5000000CF50
2FF2000000EF30
5FE0000001FF10
7FC0000004FE00
9FA0000007FA00
BF9000000BF600
BF8000001FF100
BF8000007FA000
AF800000DF3000
8FA00007FB0000
3FD0002EE20000
0CF403DF400000
02DFDFD4000000
00168610000000
ENDCHAR
STARTCHAR Odieresis
ENCODING 214
SWIDTH 567 0
DWIDTH 14 0
BBX 13 26 0 -5
BITMAP
0000003B905A50
000000AF80EE50
00000011001100
0000005CB73000
000009FFEEF300
00008FCC14FA00
0004FE2100FE00
000CF60000DF30
006FC00000CF40
00CF600000BF50
03FE100000BF60
09FA000000BF60
0DF5000000CF50
2FF2000000EF30
5FE0000001FF10
7FC0000004FE00
9FA0000007FA00
BF9000000BF600
BF8000001FF100
BF8000007FA000
AF800000DF3000
8FA00007FB0000
3FD0002EE20000
0CF403DF400000
02DFDFD4000000
00168610000000
ENDCHAR
STARTCHAR multiply
ENCODING 215
SWIDTH 281 0
DWIDTH 7 0
BBX 9 10 -1 3
BITMAP
0043000300
01DE008F70
006F46F900
001FCFA000
000BFA0000
002EF10000
01DDF50000
0BC1CC0000
7D105F3000
0100020000
ENDCHAR
STARTCHAR Oslash
ENCODING 216
SWIDTH 597 0
DWIDTH 14 0
BBX 16 24 -1 -5
BITMAP
0000000000000031
00000003BD753EE1
0000005FFFDFFF60
000004FEC40EFC00
00001DF5101EF500
00008FA0008FF700
0002FF2002FFF900
0008FA000AFDFA00
000EF4003FD6FB00
004FE000BF46FA00
008F9005FB07FA00
00CF600DF209F800
00FF306F900BF600
02FF11EE100EF300
04FE08F7003FE100
06FD2EE1007FA000
07FCAF7000CF6000
07FEFE1002FE1000
05FFF70009F80000
03FFE1003FE10000
00FF7000CF500000
06FF901BF8000000
1EFEFDEF70000000
7FB1587200000000
ENDCHAR
STARTCHAR Ugrave
ENCODING 217
SWIDTH 574 0
DWIDTH 14 0
BBX 15 27 0 -5
BITMAP
0000000150000000
00000008FC200000
000000017EE30000
0000000001850000
0000012000002530
0001BFA00002FF70
0006FF400007FF20
000BFE00000BFC00
001FF800000EF700
004FF300004FF300
009FD000008FD000
00DF900000BF9000
02FF400000FF4000
05FE000004FE0000
09FB000007FA0000
0CF600000AF60000
0FF200000EF30000
3FE000002FF00000
5FB000006FC00000
8F900000BFA00000
AF700002FF800000
BF600008FF600000
BF70002EFF500000
AFA000BEBF500000
5FF85BF48F700000
0AFFFD404FB00000
0035400001100000
ENDCHAR
STARTCHAR Uacute
ENCODING 218
SWIDTH 574 0
DWIDTH 14 0
BBX 15 27 0 -5
BITMAP
0000000000022000
00000000006EA000
000000001AFD3000
000000004B500000
0000012000002530
0001BFA00002FF70
0006FF400007FF20
000BFE00000BFC00
001FF800000EF700
004FF300004FF300
009FD000008FD000
00DF900000BF9000
02FF400000FF4000
05FE000004FE0000
09FB000007FA0000
0CF600000AF60000
0FF200000EF30000
3FE000002FF00000
5FB000006FC00000
8F900000BFA00000
AF700002FF800000
BF600008FF600000
BF70002EFF500000
AFA000BEBF500000
5FF85BF48F700000
0AFFFD404FB00000
0035400001100000
ENDCHAR
STARTCHAR Ucircumflex
ENCODING 219
SWIDTH 574 0
DWIDTH 14 0
BBX 15 27 0 -5
BITMAP
0000000002740000
000000004EEE1000
00000007F63FA000
0000001320025100
0000012000002530
0001BFA00002FF70
0006FF400007FF20
000BFE00000BFC00
001FF800000EF700
004FF300004FF300
009FD000008FD000
00DF900000BF9000
02FF400000FF4000
05FE000004FE0000
09FB000007FA0000
0CF600000AF60000
0FF200000EF30000
3FE000002FF00000
5FB000006FC00000
8F900000BFA00000
AF700002FF800000
BF600008FF600000
BF70002EFF500000
AFA000BEBF500000
5FF85BF48F700000
0AFFFD404FB00000
0035400001100000
ENDCHAR
STARTCHAR Udieresis
ENCODING 220
SWIDTH 574 0
DWIDTH 14 0
BBX 15 26 0 -5
BITMAP
00000008B319A000
0000003FD27FB000
0000000200010000
0000012000002530
0001BFA00002FF70
0006FF400007FF20
000BFE00000BFC00
001FF800000EF700
004FF300004FF300
009FD000008FD000
00DF900000BF9000
02FF400000FF4000
05FE000004FE0000
09FB000007FA0000
0CF600000AF60000
0FF200000EF30000
3FE000002FF00000
5FB000006FC00000
8F900000BFA00000
AF700002FF800000
BF600008FF600000
BF70002EFF500000
AFA000BEBF500000
5FF85BF48F700000
0AFFFD404FB00000
0035400001100000
ENDCHAR
STARTCHAR Yacute
ENCODING 221
SWIDTH 532 0
DWIDTH 13 0
BBX 14 27 0 -5
BITMAP
00000000002200
0000000005EA00
00000001AFD400
00000004B60000
00015710000385
000AFD00000EF7
000EF800003FF3
004FF200007FD0
008FC00000AF90
00CF700000DF40
01FF200002FF00
05FD000005FB00
08F900000AF800
0BF500001EF400
0EF200006FF000
1FE00000DFB000
3FD00008EF8000
2FE1006F9F4000
0DFB7AF78F1000
04EFFC40DB0000
00021003F70000
0000000AF20000
0210004FA00000
3EA003EE200000
BFFDCFF5000000
6FFFFD40000000
01553000000000
ENDCHAR
STARTCHAR Thorn
ENCODING 222
SWIDTH 569 0
DWIDTH 14 0
BBX 14 23 -1 -5
BITMAP
00000152000000
00001EF3000000
00006FE0000000
00009FA0000000
0000DF74665100
0001FFFECEFE50
005EFD30007FF3
04FFF800000AFA
03EEF4000006FD
002FF1000006FE
004FC0000008FC
008F8000000BF8
00BF5000003FF2
00FF100000BF90
03FD000009FC10
07FA0001AFC100
0BF7028EF90000
0EFDDFD9200000
3FF64200000000
6FF00000000000
AFC00000000000
DFA00000000000
43000000000000
ENDCHAR
STARTCHAR germandbls
ENCODING 223
SWIDTH 495 0
DWIDTH 12 0
BBX 14 28 -3 -12
BITMAP
000000017CC600
0000001CFCAF50
0000009F902FA0
000002FD006F90
000008F700CF40
00000DF203FB00
00002FB00AE200
00006F600E8000
0000BF200DC000
0000EC0006F600
0004F70000DE20
1308F200005FC0
1ADEC000000CF6
004FD2008705F9
005FBE34FE13F3
00AE0BD1DFCE60
00DB02F82AB400
02F700BE000000
06F4008F200000
0AF1008F200000
0EC000BF000000
2F8002FA000000
6F500AF4000000
AF105FB0000000
CF17FE20000000
DFFFE300000000
8FFC3000000000
03300000000000
ENDCHAR
STARTCHAR agrave
ENCODING 224
SWIDTH 435 0
DWIDTH 10 0
BBX 14 16 -1 -1
BITMAP
00003400000000
0000DF90000000
00002AFC100000
0000003A200000
00000000000000
00002AC6000000
0004ECED000000
004FB0BD600000
01DE103F700000
07F7006F400064
0DF1009F1003D1
3FD001ED001D30
5FC00AFA01C600
4FF8CBBB1B9000
1DFF917FFA0000
01410004300000
ENDCHAR
STARTCHAR aacute
ENCODING 225
SWIDTH 435 0
DWIDTH 10 0
BBX 14 16 -1 -1
BITMAP
00000002200000
0000006E900000
00001AFD300000
00004B50000000
00000000000000
00002AC6000000
0004ECED000000
004FB0BD600000
01DE103F700000
07F7006F400064
0DF1009F1003D1
3FD001ED001D30
5FC00AFA01C600
4FF8CBBB1B9000
1DFF917FFA0000
01410004300000
ENDCHAR
STARTCHAR acircumflex
ENCODING 226
SWIDTH 435 0
DWIDTH 10 0
BBX 14 16 -1 -1
BITMAP
00000057100000
00001BEF700000
0003DB1BE20000
00033001430000
00000000000000
00002AC6000000
0004ECED000000
004FB0BD600000
01DE103F700000
07F7006F400064
0DF1009F1003D1
3FD001ED001D30
5FC00AFA01C600
4FF8CBBB1B9000
1DFF917FFA0000
01410004300000
ENDCHAR
STARTCHAR atilde
ENCODING 227
SWIDTH 435 0
DWIDTH 10 0
BBX 14 14 -1 -1
BITMAP
0006BB944B2000
002FB9CFFB0000
00020001100000
00002AC6000000
0004ECED000000
004FB0BD600000
01DE103F700000
07F7006F400064
0DF1009F1003D1
3FD001ED001D30
5FC00AFA01C600
4FF8CBBB1B9000
1DFF917FFA0000
01410004300000
ENDCHAR
STARTCHAR adieresis
ENCODING 228
SWIDTH 435 0
DWIDTH 10 0
BBX 14 14 -1 -1
BITMAP
00006B508A1000
0000FE44FD1000
00002100100000
00002AC6000000
0004ECED000000
004FB0BD600000
01DE103F700000
07F7006F400064
0DF1009F1003D1
3FD001ED001D30
5FC00AFA01C600
4FF8CBBB1B9000
1DFF917FFA0000
01410004300000
ENDCHAR
STARTCHAR aring
ENCODING 229
SWIDTH 435 0
DWIDTH 10 0
BBX 14 16 -1 -1
BITMAP
00000010000000
00000ADB000000
00003E3E000000
000009B4000000
00000000000000
00002AC6000000
0004ECED000000
004FB0BD600000
01DE103F700000
07F7006F400064
0DF1009F1003D1
3FD001ED001D30
5FC00AFA01C600
4FF8CBBB1B9000
1DFF917FFA0000
01410004300000
ENDCHAR
STARTCHAR ae
ENCODING 230
SWIDTH 594 0
DWIDTH 14 0
BBX 17 11 -1 -1
BITMAP
00002AD7029C900000
0004ECED4EADF30000
004FB0CEE90AE00000
01DE105FE13F700000
07F7009F93E9000070
0DF100BFCE700007A0
3FD000DFC300007C10
5FC009FF500008C200
4FF8CD8FC103CC1000
1DFFB21CFFEE800000
015300006861000000
ENDCHAR
STARTCHAR ccedilla
ENCODING 231
SWIDTH 363 0
DWIDTH 9 0
BBX 12 16 -1 -6
BITMAP
00018CC30000
002DF7CB0000
01DF45FB0000
07F709F40000
0DE101200037
2FB0000002D2
3F9000001D50
2FB00002D600
0DF5005E6000
04FFDDD40000
002FC6100000
005F51000000
005BEE200000
00007F400000
0039E7000000
006510000000
ENDCHAR
STARTCHAR egrave
ENCODING 232
SWIDTH 372 0
DWIDTH 9 0
BBX 12 16 -1 -1
BITMAP
000042000000
0001FF700000
00004BF90000
0000004A0000
000000000000
00004AC50000
0008F9FD0000
006F50EB0000
02EB07F30000
09F57F500016
0EFCD30000B5
1FF910000B80
1FF00001B900
0CF8005E8000
03EFEED40000
002784000000
ENDCHAR
STARTCHAR eacute
ENCODING 233
SWIDTH 372 0
DWIDTH 9 0
BBX 12 16 -1 -1
BITMAP
000000030000
0000008F6000
00003CFB1000
00007A400000
000000000000
00004AC50000
0008F9FD0000
006F50EB0000
02EB07F30000
09F57F500016
0EFCD30000B5
1FF910000B80
1FF00001B900
0CF8005E8000
03EFEED40000
002784000000
ENDCHAR
STARTCHAR ecircumflex
ENCODING 234
SWIDTH 372 0
DWIDTH 9 0
BBX 12 16 -1 -1
BITMAP
000001660000
00002DEF4000
0005E91EC100
000330015200
000000000000
00004AC50000
0008F9FD0000
006F50EB0000
02EB07F30000
09F57F500016
0EFCD30000B5
1FF910000B80
1FF00001B900
0CF8005E8000
03EFEED40000
002784000000
ENDCHAR
STARTCHAR edieresis
ENCODING 235
SWIDTH 372 0
DWIDTH 9 0
BBX 12 14 -1 -1
BITMAP
0003B806B400
000BF70FE400
000110010000
00004AC50000
0008F9FD0000
006F50EB0000
02EB07F30000
09F57F500016
0EFCD30000B5
1FF910000B80
1FF00001B900
0CF8005E8000
03EFEED40000
002784000000
ENDCHAR
STARTCHAR igrave
ENCODING 236
SWIDTH 274 0
DWIDTH 7 0
BBX 9 16 0 -1
BITMAP
1500000000
8FD2000000
17EE300000
0018600000
0000000000
0014000000
04FD000000
0AF8000000
0EF3000000
3FD0000650
5F80004D10
7F4003E300
8F104E5000
6F57F60000
1CFE400000
0031000000
ENDCHAR
STARTCHAR iacute
ENCODING 237
SWIDTH 274 0
DWIDTH 7 0
BBX 9 16 0 -1
BITMAP
0000013000
00003DE000
0007FE6000
001B710000
0000000000
0014000000
04FD000000
0AF8000000
0EF3000000
3FD0000650
5F80004D10
7F4003E300
8F104E5000
6F57F60000
1CFE400000
0031000000
ENDCHAR
STARTCHAR icircumflex
ENCODING 238
SWIDTH 274 0
DWIDTH 7 0
BBX 9 15 0 -1
BITMAP
0005710000
01AEF80000
2CC2AF3000
2300043000
0014000000
04FD000000
0AF8000000
0EF3000000
3FD0000650
5F80004D10
7F4003E300
8F104E5000
6F57F60000
1CFE400000
0031000000
ENDCHAR
STARTCHAR idieresis
ENCODING 239
SWIDTH 274 0
DWIDTH 7 0
BBX 9 14 0 -1
BITMAP
19B13A7000
6FC0AF8000
0200010000
0014000000
04FD000000
0AF8000000
0EF3000000
3FD0000650
5F80004D10
7F4003E300
8F104E5000
6F57F60000
1CFE400000
0031000000
ENDCHAR
STARTCHAR eth
ENCODING 240
SWIDTH 393 0
DWIDTH 9 0
BBX 13 17 -1 -1
BITMAP
00000091000000
000000A8000000
0000005E579100
00004ADFFEB000
0002FE9F800000
0001500E900000
0001672D900000
003EFDEEA00000
00CF40AF900170
06FE007F704C40
0CFF307F7AC200
0FBDE9CFE80000
2F82ADFD100000
1F8005F7000000
0DC03ED1000000
06FEFD20000000
00475100000000
ENDCHAR
STARTCHAR ntilde
ENCODING 241
SWIDTH 461 0
DWIDTH 11 0
BBX 14 14 -1 -1
BITMAP
0004ACA5395000
000DC9BFFD2000
00010000200000
00000014200000
004EA5EFE10000
009FBE8EF40000
00DFE30BF40000
01FF400DF10018
04FA002FC00096
08F5006F9006B0
0CF100AF405D20
1FD000DF27E300
5F8000BFFD3000
34000017710000
ENDCHAR
STARTCHAR ograve
ENCODING 242
SWIDTH 393 0
DWIDTH 9 0
BBX 13 16 -1 -1
BITMAP
00004200000000
0001FF70000000
00004BF9000000
0000004A000000
00000000000000
00016710000000
003EFDE3000000
00CF40AD000170
06FE007F204C40
0CFF307F6AC200
0FBDE9CFE70000
2F82ADFD100000
1F8005F7000000
0DC03ED1000000
06FEFD20000000
00475100000000
ENDCHAR
STARTCHAR oacute
ENCODING 243
SWIDTH 393 0
DWIDTH 9 0
BBX 13 16 -1 -1
BITMAP
00000003000000
0000008F600000
00003CFB100000
00007A40000000
00000000000000
00016710000000
003EFDE3000000
00CF40AD000170
06FE007F204C40
0CFF307F6AC200
0FBDE9CFE70000
2F82ADFD100000
1F8005F7000000
0DC03ED1000000
06FEFD20000000
00475100000000
ENDCHAR
STARTCHAR ocircumflex
ENCODING 244
SWIDTH 393 0
DWIDTH 9 0
BBX 13 15 -1 -1
BITMAP
00000571000000
0001AEF8000000
002DC1AF300000
00330014300000
00016710000000
003EFDE3000000
00CF40AD000170
06FE007F204C40
0CFF307F6AC200
0FBDE9CFE70000
2F82ADFD100000
1F8005F7000000
0DC03ED1000000
06FEFD20000000
00475100000000
ENDCHAR
STARTCHAR otilde
ENCODING 245
SWIDTH 393 0
DWIDTH 9 0
BBX 13 14 -1 -1
BITMAP
003ACA53860000
00CD9BEFE20000
00100002000000
00016710000000
003EFDE3000000
00CF40AD000170
06FE007F204C40
0CFF307F6AC200
0FBDE9CFE70000
2F82ADFD100000
1F8005F7000000
0DC03ED1000000
06FEFD20000000
00475100000000
ENDCHAR
STARTCHAR odieresis
ENCODING 246
SWIDTH 393 0
DWIDTH 9 0
BBX 13 14 -1 -1
BITMAP
0006B508A10000
000FE44FD10000
00021001000000
00016710000000
003EFDE3000000
00CF40AD000170
06FE007F204C40
0CFF307F6AC200
0FBDE9CFE70000
2F82ADFD100000
1F8005F7000000
0DC03ED1000000
06FEFD20000000
00475100000000
ENDCHAR
STARTCHAR divide
ENCODING 247
SWIDTH 350 0
DWIDTH 8 0
BBX 10 9 -1 4
BITMAP
0000034000
00004FF100
0000163000
0367888861
0EFFFFFFF2
1743211110
0002850000
000AF90000
0002300000
ENDCHAR
STARTCHAR oslash
ENCODING 248
SWIDTH 406 0
DWIDTH 10 0
BBX 15 13 -2 -2
BITMAP
0000000004500000
000005739F400000
0000CFDFF8000000
0008F806F3000810
002FF303F702B700
008FF702F98E5000
00BE9FAAFFA10000
00CC08CEF3000000
00CC001EC0000000
009F21BF30000000
00CFFFE500000000
09F9662000000000
1A71000000000000
ENDCHAR
STARTCHAR ugrave
ENCODING 249
SWIDTH 468 0
DWIDTH 11 0
BBX 14 15 0 -1
BITMAP
00034000000000
000DF900000000
0002AFC1000000
000003A2000000
00000000000000
05E8004F800000
0DF200BF700000
4FC001FF500000
8F7004FF1000A2
CF2007FB000690
EE0008F4004D10
FE000BF303D300
DF63AEF85E5000
4EFFD2CFE40000
02540014100000
ENDCHAR
STARTCHAR uacute
ENCODING 250
SWIDTH 468 0
DWIDTH 11 0
BBX 14 15 0 -1
BITMAP
00000013000000
000003DD000000
00008FE6000000
0002B710000000
00000000000000
05E8004F800000
0DF200BF700000
4FC001FF500000
8F7004FF1000A2
CF2007FB000690
EE0008F4004D10
FE000BF303D300
DF63AEF85E5000
4EFFD2CFE40000
02540014100000
ENDCHAR
STARTCHAR ucircumflex
ENCODING 251
SWIDTH 468 0
DWIDTH 11 0
BBX 14 15 0 -1
BITMAP
00000472000000
00008EEB000000
001BD37F500000
00231004400000
00000000000000
05E8004F800000
0DF200BF700000
4FC001FF500000
8F7004FF1000A2
CF2007FB000690
EE0008F4004D10
FE000BF303D300
DF63AEF85E5000
4EFFD2CFE40000
02540014100000
ENDCHAR
STARTCHAR udieresis
ENCODING 252
SWIDTH 468 0
DWIDTH 11 0
BBX 14 14 0 -1
BITMAP
0007B419A10000
001FE36FC10000
00020001000000
00000000000000
05E8004F800000
0DF200BF700000
4FC001FF500000
8F7004FF1000A2
CF2007FB000690
EE0008F4004D10
FE000BF303D300
DF63AEF85E5000
4EFFD2CFE40000
02540014100000
ENDCHAR
STARTCHAR yacute
ENCODING 253
SWIDTH 406 0
DWIDTH 10 0
BBX 10 26 -1 -11
BITMAP
0000000040
00000019F5
000003DFB1
000008A300
0000000000
0011000031
02FF2009F9
02FF1008F8
06FB000BF4
0AF6001FE0
0EF1008FA0
3FB002EF50
5F900BFF10
4FC2AEED00
1DFFF6F900
027834F600
000008F200
00000CE000
00001FB000
00005F8000
00009F5000
0000DF2000
0002FE0000
0006FB0000
0004F70000
0000100000
ENDCHAR
STARTCHAR thorn
ENCODING 254
SWIDTH 451 0
DWIDTH 11 0
BBX 16 28 -3 -11
BITMAP
0000002630000000
000000DF90000000
000000DF60000000
000001FF20000000
000004FD00000000
000007F800000000
00000AF400000000
00000EE003200000
00002FA3DFE20000
00006FAE8BF60000
0000AFE303F70000
0000DF5005F50025
0002FA000AF101C3
0005F5003FA00A70
0009F961CF30AA00
000DFFFEF84CB100
002FCFFFFFF80000
005F66A535200000
009F300000000000
00DE000000000000
02FB000000000000
06F8000000000000
09F5000000000000
0DF2000000000000
2FF0000000000000
6FC0000000000000
4F90000000000000
0100000000000000
ENDCHAR
STARTCHAR ydieresis
ENCODING 255
SWIDTH 406 0
DWIDTH 10 0
BBX 10 24 -1 -11
BITMAP
0003B806B4
000BF70FE4
0001100100
0011000031
02FF2009F9
02FF1008F8
06FB000BF4
0AF6001FE0
0EF1008FA0
3FB002EF50
5F900BFF10
4FC2AEED00
1DFFF6F900
027834F600
000008F200
00000CE000
00001FB000
00005F8000
00009F5000
0000DF2000
0002FE0000
0006FB0000
0004F70000
0000100000
ENDCHAR
STARTCHAR dotlessi
ENCODING 305
SWIDTH 274 0
DWIDTH 7 0
BBX 9 11 0 -1
BITMAP
0014000000
04FD000000
0AF8000000
0EF3000000
3FD0000650
5F80004D10
7F4003E300
8F104E5000
6F57F60000
1CFE400000
0031000000
ENDCHAR
STARTCHAR Lslash
ENCODING 321
SWIDTH 492 0
DWIDTH 12 0
BBX 16 23 -3 -5
BITMAP
0000000000004881
000000000009FFF9
00000000006FD7FB
0000000001EF33FA
0000000007FC08F5
000000000BF74FC0
000000000EF9EE20
000000003FFFE300
0003B889DFFB2000
00008EFFFF800000
00000000CF400000
00000001FF131000
00000159FFFF6000
00005FFFFC850000
0000AB6EF2000000
0000003FB0000000
0000009F50000000
000001FC00000000
05CFFDF400000000
3FEADFFA20000500
5FB8E9CFE966BC00
1ADB4008EFFFF600
00000000169A6000
ENDCHAR
STARTCHAR lslash
ENCODING 322
SWIDTH 218 0
DWIDTH 5 0
BBX 9 18 -2 -1
BITMAP
0000036100
00001FF500
00002FF300
00004FE000
00007FA000
0000BF6000
0000EF3000
0026FFDF90
2DFFFEB820
7EACF60000
200DF20000
002FD00000
005F900000
009F500000
00DF200000
01FD000000
04F9000000
0062000000
ENDCHAR
STARTCHAR OE
ENCODING 338
SWIDTH 918 0
DWIDTH 22 0
BBX 23 23 0 -5
BITMAP
0000005CB730000027A96000
000009FFEEF3002BFC88EA00
00008FCC14FA05EE50009F30
0004FE2100FE4FF400008F50
000CF60000DFFF900000CF40
006FC00000CFFF300005FE00
00CF600000BFFF00006EF700
03FE100000BFFE0000398000
09FA000000BFFF1000000000
0DF5000000CFFF8000000000
2FF2000000EF7EF653000000
5FE0000001FF4AFFFE000000
7FC0000004FFFC4383000000
9FA0000007FFB00000000000
BF9000000BFE100000000000
BF8000001FF7000000001000
BF8000007FF5000000075000
AF800000DFF60000002E1000
8FA00007FFFA000000B90000
3FD0002EECFF40001BD10000
0CF403DF42EFF967EE300000
02DFDFD4002BFFFFB2000000
001685000000245200000000
ENDCHAR
STARTCHAR oe
ENCODING 339
SWIDTH 583 0
DWIDTH 14 0
BBX 18 11 -1 -1
BITMAP
00016720029C900000
003EFDE44EBDF30000
00CF40AEEA09F10000
06FF007FE13E900000
0CFF807FA4EB000061
0FABFCCFEF910006A0
2F818CFFB300006C10
1F8005FF500007D200
0DC03EFFB103BC1000
06FEFD3BFFEE800000
004750005861000000
ENDCHAR
STARTCHAR Scaron
ENCODING 352
SWIDTH 474 0
DWIDTH 11 0
BBX 16 28 -2 -5
BITMAP
0000000005500142
0000000004F83EB1
0000000000AFE800
0000000000163000
0000000000000000
000000049BC93000
000001BFE97DE300
00001CFB1005FA00
00008FB00003FD00
0001FF200005FC00
0003FE00000AF900
0003FF10002FE300
0001FF7000251000
00009FE300000000
00001EFE20000000
000004FFD1000000
0000006FF9000000
0000000AFF100000
00000001FF500000
00000000AF800000
000000006F800000
03AB00004F600000
0EF700006F300000
1FF70000CD000000
0DFA0005F7000000
07FF616EC0000000
00CFFFFB10000000
0005884000000000
ENDCHAR
STARTCHAR scaron
ENCODING 353
SWIDTH 351 0
DWIDTH 8 0
BBX 9 17 0 -1
BITMAP
0055001420
004F83EA10
000AFE7000
0001630000
0000000000
0003820000
004FF70000
00EFD10000
00DFC00000
04DBF10000
1D35F80000
9600EE1000
10009F7000
09704F9000
4FD04F3000
1EFCE50000
03BA300000
ENDCHAR
STARTCHAR Ydieresis
ENCODING 376
SWIDTH 532 0
DWIDTH 13 0
BBX 14 26 0 -5
BITMAP
0000003B905A50
000000AF80EE50
00000011001100
00015710000385
000AFD00000EF7
000EF800003FF3
004FF200007FD0
008FC00000AF90
00CF700000DF40
01FF200002FF00
05FD000005FB00
08F900000AF800
0BF500001EF400
0EF200006FF000
1FE00000DFB000
3FD00008EF8000
2FE1006F9F4000
0DFB7AF78F1000
04EFFC40DB0000
00021003F70000
0000000AF20000
0210004FA00000
3EA003EE200000
BFFDCFF5000000
6FFFFD40000000
01553000000000
ENDCHAR
STARTCHAR Zcaron
ENCODING 381
SWIDTH 455 0
DWIDTH 11 0
BBX 15 27 -2 -5
BITMAP
0000000045001430
000000004F93DB10
0000000009FE8000
0000000001640000
0000034677664200
0000AFFFFFFFFC00
0000FFCA8769FD00
000061000008FB00
00000000001EF500
0000000000AFC000
0000000005FF3000
000000002EF80000
00000000CFB00000
00000009FD100000
0000006FE2000000
000003FF40000000
00002EF700000000
0001CFA000000000
0009FC0000000000
005FE20000000000
01EF400000000000
09F8000000000000
2FD1000000000000
9F7479AA98500000
DFFFFFFFFFB00000
AFDB99ACED200000
1100000000000000
ENDCHAR
STARTCHAR zcaron
ENCODING 382
SWIDTH 349 0
DWIDTH 8 0
BBX 14 26 -4 -11
BITMAP
00000035100430
0000002EB2CD20
00000007FEA100
00000000650000
00000000000000
00000357874000
0000AFFFFFD000
0000DA523F7000
00000000AE1000
00000003F80000
0000001DD00005
000000BF300069
00001BFDDA07B0
00006FE59EAB10
00001921AF8000
0000019EFC0000
00005EC4F80000
0007F807F40000
006F700DE00000
02EA005F800000
09F200DF200000
0EB006FA000000
1FA02EE2000000
1FD6DF60000000
0AFFF800000000
00563000000000
ENDCHAR
STARTCHAR circumflex
ENCODING 710
SWIDTH 567 0
DWIDTH 14 0
BBX 7 4 5 13
BITMAP
00066000
02CEF500
4EA1DD10
33001520
ENDCHAR
STARTCHAR caron
ENCODING 711
SWIDTH 567 0
DWIDTH 14 0
BBX 7 4 5 13
BITMAP
54002420
7F65E900
0CEE6000
02620000
ENDCHAR
STARTCHAR breve
ENCODING 728
SWIDTH 567 0
DWIDTH 14 0
BBX 7 3 5 13
BITMAP
CA004E30
BE66EB00
2CFE8000
ENDCHAR
STARTCHAR dotaccent
ENCODING 729
SWIDTH 567 0
DWIDTH 14 0
BBX 3 3 7 13
BITMAP
6B50
FE40
2100
ENDCHAR
STARTCHAR ring
ENCODING 730
SWIDTH 567 0
DWIDTH 14 0
BBX 4 4 6 13
BITMAP
0010
1CD9
5C5B
1AB3
ENDCHAR
STARTCHAR ogonek
ENCODING 731
SWIDTH 567 0
DWIDTH 14 0
BBX 7 4 5 -3
BITMAP
1D700000
8F100510
9FB9D700
29A72000
ENDCHAR
STARTCHAR tilde
ENCODING 732
SWIDTH 567 0
DWIDTH 14 0
BBX 8 3 4 13
BITMAP
08BB845B
5FA9DFF8
01000110
ENDCHAR
STARTCHAR hungarumlaut
ENCODING 733
SWIDTH 567 0
DWIDTH 14 0
BBX 9 4 4 13
BITMAP
0004000400
019F51BF30
3DFA6EF900
8A30A92000
ENDCHAR
STARTCHAR endash
ENCODING 8211
SWIDTH 353 0
DWIDTH 8 0
BBX 10 3 -1 6
BITMAP
0245566540
1EFFFFFFE1
4965443320
ENDCHAR
STARTCHAR emdash
ENCODING 8212
SWIDTH 508 0
DWIDTH 12 0
BBX 13 3 -1 6
BITMAP
03566777775410
3FFFFFFFFFFFC0
28765544567840
ENDCHAR
STARTCHAR quoteleft
ENCODING 8216
SWIDTH 155 0
DWIDTH 4 0
BBX 3 6 1 11
BITMAP
0030
0870
5E00
BE80
EFC0
AD40
ENDCHAR
STARTCHAR quoteright
ENCODING 8217
SWIDTH 154 0
DWIDTH 4 0
BBX 4 6 1 11
BITMAP
0120
2EF3
7FF4
1AE1
0B70
4900
ENDCHAR
STARTCHAR quotesinglbase
ENCODING 8218
SWIDTH 188 0
DWIDTH 5 0
BBX 3 6 -1 -3
BITMAP
0530
9FE0
CFE0
2D90
2E10
8300
ENDCHAR
STARTCHAR quotedblleft
ENCODING 8220
SWIDTH 289 0
DWIDTH 7 0
BBX 7 6 1 11
BITMAP
00300300
08705B00
5E02F300
BE88FA00
EFCBFF10
AD47D600
ENDCHAR
STARTCHAR quotedblright
ENCODING 8221
SWIDTH 288 0
DWIDTH 7 0
BBX 7 6 1 11
BITMAP
02401400
3FF5EF70
7FF8FF70
19E17F20
0C608900
5802A100
ENDCHAR
STARTCHAR quotedblbase
ENCODING 8222
SWIDTH 323 0
DWIDTH 8 0
BBX 7 6 -1 -3
BITMAP
05304500
9FE6FF20
CFE9FF20
2D91AC00
2E11D400
83065000
ENDCHAR
STARTCHAR bullet
ENCODING 8226
SWIDTH 180 0
DWIDTH 4 0
BBX 5 6 -1 4
BITMAP
004500
06FF70
1EFFB0
3FFF90
2FFF30
09D500
ENDCHAR
STARTCHAR ellipsis
ENCODING 8230
SWIDTH 614 0
DWIDTH 15 0
BBX 13 3 -1 -1
BITMAP
19C402AB204AB0
AFF40CFE21FFD0
38300572006710
ENDCHAR
STARTCHAR perthousand
ENCODING 8240
SWIDTH 851 0
DWIDTH 20 0
BBX 20 19 0 -1
BITMAP
00026300000058000000
004EEF500009F4000000
02EB08E0005F80000000
09E105F201EC00000000
0DA007F10AE200000000
0F700BD06F5000000000
0F703F62EA0000000000
0BD7DC1BD10000000000
02CEA17F400000000000
000002F8000000000000
00000CD04CE80006DD50
00008F33EB5F607F88F2
0003F90BD10CB1F901F7
000DD12F600CB7F201F7
008F505F201E9AE004F4
04FA006F105F4AC00AE0
1DE2004F52DB08E25F70
9F70000CFFC202EFFA00
53000001540000253000
ENDCHAR
STARTCHAR guilsinglleft
ENCODING 8249
SWIDTH 202 0
DWIDTH 5 0
BBX 6 11 -1 -1
BITMAP
000022
0005E3
004F50
03E900
2EC000
CF3000
6F6000
0CD000
03F400
00AA00
001400
ENDCHAR
STARTCHAR guilsinglright
ENCODING 8250
SWIDTH 202 0
DWIDTH 5 0
BBX 6 11 -2 -1
BITMAP
004100
00C800
005F20
000EB0
0008F5
0004FB
001CE2
009E30
06F400
3E5000
320000
ENDCHAR
STARTCHAR fraction
ENCODING 8260
SWIDTH 600 0
DWIDTH 14 0
BBX 15 19 0 -1
BITMAP
0000000000001750
000000000001DD10
00000000000AF300
00000000005F7000
0000000002EB0000
000000000BE10000
000000006F400000
00000002E9000000
0000000CD0000000
0000007F30000000
000003F800000000
00000CD000000000
00008F3000000000
0003F90000000000
001DE10000000000
009F500000000000
04FB000000000000
1DF3000000000000
2510000000000000
ENDCHAR
STARTCHAR Euro
ENCODING 8364
SWIDTH 334 0
DWIDTH 8 0
BBX 11 15 -1 1
BITMAP
0000006A8100
00001CE6BC00
0000BE303E10
0007F7000200
001ED0000000
028F93210000
4FFFEEFD0000
14FB22100000
BFFFFFF10000
69F411000000
07F100000000
04F200071000
00D6009B0000
003D9CA10000
000153000000
ENDCHAR
STARTCHAR minus
ENCODING 8722
SWIDTH 353 0
DWIDTH 8 0
BBX 10 3 -1 6
BITMAP
0245566540
1EFFFFFFE1
4965443320
ENDCHAR
STARTCHAR fi
ENCODING 64257
SWIDTH 549 0
DWIDTH 13 0
BBX 18 29 -3 -12
BITMAP
0000005A9000000000
000000BFD000023000
0000009FC0001EC000
0000009F90004F9000
000000BF5000030000
000000EF1000000000
000002FB0000000000
000006F60000230000
000009F20008F70000
00000EC0001FF20000
00004F869BDFC00000
0001BFFB728F70000A
000BFC2000AF300099
000FF70000CD0008C1
000AFA0000DB008D20
000CEFB000CD4BD200
001FA5F9004EFB1000
004F609F3001300000
008F202F9000000000
00CD000EC000000000
01FA000EC000000000
05F7001FA000000000
08F3007F5000000000
0CE001EE0000000000
0FB00AF60000000000
3FA2AFB00000000000
4FFFFC100000000000
1DFF91000000000000
014100000000000000
ENDCHAR
STARTCHAR fl
ENCODING 64258
SWIDTH 516 0
DWIDTH 12 0
BBX 16 29 -3 -12
BITMAP
0000005A90000362
000000BFD0000FF7
0000009FC0000FF5
0000009F90002FF1
000000BF50005FC0
000000EF10009F80
000002FB0000CF40
000006F60001FF10
000009F20004FC00
00000EC00008F800
00004F869BDEF400
0001BFFB621FF100
000BFC20004FB000
000FF700007F8000
000AFA0000BF4000
000CEFB000EF0000
001FA5F902FB0000
004F609F30530000
008F202F90000000
00CD000EC0000000
01FA000EC0000000
05F7001FA0000000
08F3007F50000000
0CE001EE00000000
0FB00AF600000000
3FA2AFB000000000
4FFFFC1000000000
1DFF910000000000
0141000000000000
ENDCHAR
STARTCHAR .notdef
ENCODING -1
SWIDTH 280 0
DWIDTH 7 0
BBX 1 1 0 0
BITMAP
00
ENDCHAR
ENDFONT
